<svg width="105" height="38" viewBox="0 0 105 38" fill="none" xmlns="http://www.w3.org/2000/svg">
<path d="M22.457 0.902344V15.4992H37.0539C35.5568 8.13841 29.8178 2.39946 22.457 0.902344ZM14.9714 37.5817V22.9848H0.374512C1.87163 30.3457 7.61058 36.0846 14.9714 37.5817Z" fill="#C94747"/>
<path d="M22.457 22.9848V37.5817C29.8178 36.0846 35.5568 30.3457 37.0539 22.9848H22.457ZM0.374512 15.4992H14.9714V0.902344C7.61058 2.39946 1.87163 8.13841 0.374512 15.4992Z" fill="#2A5F9E"/>
<path d="M37.0537 15.4995H22.4568V0.9026C21.2715 0.65308 20.024 0.52832 18.714 0.52832C17.404 0.52832 16.1564 0.65308 14.9712 0.9026V15.4995H0.374279C0.12476 16.6847 0 17.9323 0 19.2423C0 20.5523 0.12476 21.7999 0.374279 22.9851H14.9712V37.582C16.1564 37.8315 17.404 37.9563 18.714 37.9563C20.024 37.9563 21.2715 37.8315 22.4568 37.582V22.9851H37.0537C37.3032 21.7999 37.4279 20.5523 37.4279 19.2423C37.4279 17.9323 37.3032 16.6847 37.0537 15.4995Z" fill="#F9F9F9"/>
<path d="M16.8428 17.558C16.8428 17.558 16.5933 17.4956 16.3438 17.4956C16.5309 17.2461 16.5933 16.7471 16.5933 16.7471C16.5933 16.7471 16.1566 16.9966 16.0319 17.2461C15.9695 17.059 15.7824 16.8718 15.7824 16.8718C15.7824 16.8718 15.5952 17.1213 15.5952 17.3085C15.5952 17.4956 15.9071 17.8075 15.9071 17.8075C15.9071 17.8075 16.2814 17.9323 16.5309 17.8699C16.7181 17.8699 16.8428 17.558 16.8428 17.558Z" fill="#699635"/>
<path d="M16.4681 18.1823C16.4681 18.1823 16.2186 18.1823 15.969 18.2447C16.0314 17.9328 15.969 17.4961 15.969 17.4961C15.969 17.4961 15.6571 17.808 15.5324 18.1199L15.2205 17.808C15.2205 17.808 15.0957 18.0575 15.1581 18.2447C15.2205 18.4318 15.5948 18.6813 15.5948 18.6813C15.5948 18.6813 16.0314 18.6813 16.2186 18.5566C16.4057 18.4942 16.4681 18.1823 16.4681 18.1823Z" fill="#83BF4F"/>
<path d="M16.2817 18.869C16.2817 18.869 16.0322 18.9314 15.8451 19.0562C15.8451 18.7443 15.6579 18.3076 15.6579 18.3076C15.6579 18.3076 15.4084 18.7443 15.4084 18.9938C15.2213 18.869 15.0341 18.8067 15.0341 18.8067C15.0341 18.8067 14.9718 19.1186 15.0965 19.2433C15.2213 19.4305 15.5956 19.5552 15.5956 19.5552C15.5956 19.5552 15.9698 19.4305 16.157 19.3057C16.2817 19.1186 16.2817 18.869 16.2817 18.869Z" fill="#699635"/>
<path d="M16.2193 19.5538C16.2193 19.5538 15.9698 19.6786 15.845 19.8034C15.7826 19.4915 15.4707 19.1172 15.4707 19.1172C15.4707 19.1172 15.346 19.5538 15.4083 19.8657C15.2212 19.8657 14.9717 19.8034 14.9717 19.8034C14.9717 19.8034 14.9717 20.1153 15.1588 20.24C15.346 20.3648 15.7202 20.4272 15.7202 20.4272C15.7202 20.4272 16.0945 20.24 16.1569 20.0529C16.344 19.8657 16.2193 19.5538 16.2193 19.5538Z" fill="#83BF4F"/>
<path d="M16.406 20.2399C16.406 20.2399 16.2189 20.427 16.0941 20.6142C15.9694 20.3646 15.5951 20.0527 15.5951 20.0527C15.5951 20.0527 15.5951 20.5518 15.7199 20.8013H15.2832C15.2832 20.8013 15.3456 21.0508 15.5951 21.1756C15.7822 21.238 16.2189 21.1756 16.2189 21.1756C16.2189 21.1756 16.5308 20.8637 16.5932 20.6765C16.5308 20.4894 16.406 20.2399 16.406 20.2399Z" fill="#699635"/>
<path d="M16.7179 20.8643C16.7179 20.8643 16.5932 21.1138 16.5308 21.3009C16.3436 21.0514 15.907 20.9266 15.907 20.9266C15.907 20.9266 16.0317 21.3633 16.2189 21.6128C16.0317 21.6752 15.7822 21.7376 15.7822 21.7376C15.7822 21.7376 15.9694 21.9871 16.1565 21.9871C16.3436 21.9871 16.7179 21.8623 16.7179 21.8623C16.7179 21.8623 16.9051 21.4881 16.9051 21.3009C16.9674 21.0514 16.7179 20.8643 16.7179 20.8643Z" fill="#83BF4F"/>
<path d="M17.2172 21.4258C17.2172 21.4258 17.1548 21.6753 17.1548 21.8624C16.9053 21.6753 16.4062 21.6753 16.4062 21.6753C16.4062 21.6753 16.6558 22.0496 16.9053 22.2367C16.7182 22.2991 16.531 22.4862 16.531 22.4862C16.531 22.4862 16.7805 22.6734 16.9677 22.6734C17.1548 22.6734 17.4667 22.3615 17.4667 22.3615C17.4667 22.3615 17.5915 21.9872 17.5291 21.7377C17.4667 21.5505 17.2172 21.4258 17.2172 21.4258Z" fill="#699635"/>
<path d="M17.841 21.7998C17.841 21.7998 17.841 22.0493 17.9033 22.2988C17.5914 22.2365 17.1548 22.2988 17.1548 22.2988C17.1548 22.2988 17.4667 22.6107 17.7786 22.7355L17.4667 23.0474C17.4667 23.0474 17.7162 23.1722 17.9033 23.1098C18.0905 23.0474 18.34 22.6731 18.34 22.6731C18.34 22.6731 18.34 22.2365 18.2152 22.1117C18.0905 21.9869 17.841 21.7998 17.841 21.7998Z" fill="#83BF4F"/>
<path d="M20.6484 17.558C20.6484 17.558 20.898 17.4956 21.1475 17.4956C20.9603 17.2461 20.898 16.7471 20.898 16.7471C20.898 16.7471 21.3346 16.9966 21.4594 17.2461C21.5218 17.059 21.7089 16.8718 21.7089 16.8718C21.7089 16.8718 21.896 17.059 21.896 17.3085C21.896 17.4956 21.5841 17.8075 21.5841 17.8075C21.5841 17.8075 21.2099 17.9323 20.9603 17.8699C20.7108 17.8075 20.6484 17.558 20.6484 17.558Z" fill="#699635"/>
<path d="M21.0225 18.1823C21.0225 18.1823 21.272 18.1823 21.5215 18.2447C21.3967 17.9328 21.5215 17.4961 21.5215 17.4961C21.5215 17.4961 21.8334 17.808 21.9582 18.1199L22.2701 17.808C22.2701 17.808 22.3948 18.0575 22.3324 18.2447C22.2701 18.4318 21.8958 18.6813 21.8958 18.6813C21.8958 18.6813 21.4591 18.6813 21.272 18.5566C21.0848 18.4942 21.0225 18.1823 21.0225 18.1823Z" fill="#83BF4F"/>
<path d="M21.2095 18.869C21.2095 18.869 21.459 18.9314 21.6461 19.0562C21.6461 18.7443 21.8333 18.3076 21.8333 18.3076C21.8333 18.3076 22.0828 18.7443 22.0828 18.9938C22.2699 18.869 22.4571 18.8067 22.4571 18.8067C22.4571 18.8067 22.5195 19.1186 22.3947 19.2433C22.2699 19.4305 21.8957 19.5552 21.8957 19.5552C21.8957 19.5552 21.5214 19.4305 21.3342 19.3057C21.2095 19.1186 21.2095 18.869 21.2095 18.869Z" fill="#699635"/>
<path d="M21.2717 19.5538C21.2717 19.5538 21.5212 19.6786 21.646 19.8034C21.7084 19.4915 22.0203 19.1172 22.0203 19.1172C22.0203 19.1172 22.145 19.5538 22.0826 19.8657C22.2698 19.8034 22.5193 19.8034 22.5193 19.8034C22.5193 19.8034 22.5193 20.1153 22.3322 20.24C22.145 20.3648 21.7707 20.4272 21.7707 20.4272C21.7707 20.4272 21.3965 20.24 21.3341 20.0529C21.1469 19.8657 21.2717 19.5538 21.2717 19.5538Z" fill="#83BF4F"/>
<path d="M21.0848 20.2399C21.0848 20.2399 21.272 20.427 21.3967 20.6142C21.5215 20.3646 21.8958 20.0527 21.8958 20.0527C21.8958 20.0527 21.8958 20.5518 21.771 20.8013H22.2077C22.2077 20.8013 22.1453 21.0508 21.8958 21.1756C21.7086 21.238 21.272 21.1756 21.272 21.1756C21.272 21.1756 20.9601 20.8637 20.8977 20.6765C20.8353 20.4894 21.0848 20.2399 21.0848 20.2399Z" fill="#699635"/>
<path d="M20.7728 20.8643C20.7728 20.8643 20.8976 21.1138 20.96 21.3009C21.1471 21.0514 21.5838 20.9266 21.5838 20.9266C21.5838 20.9266 21.459 21.3633 21.2719 21.6128C21.459 21.6752 21.7085 21.7376 21.7085 21.7376C21.7085 21.7376 21.5214 21.9871 21.3343 21.9871C21.1471 21.9871 20.7728 21.8623 20.7728 21.8623C20.7728 21.8623 20.5857 21.4881 20.5857 21.3009C20.5233 21.0514 20.7728 20.8643 20.7728 20.8643Z" fill="#83BF4F"/>
<path d="M20.2742 21.4258C20.2742 21.4258 20.3366 21.6753 20.3366 21.8624C20.5861 21.6753 21.0851 21.6753 21.0851 21.6753C21.0851 21.6753 20.8356 22.0496 20.5861 22.2367C20.7732 22.2991 20.9604 22.4862 20.9604 22.4862C20.9604 22.4862 20.7109 22.6734 20.5237 22.6734C20.3366 22.6734 20.0247 22.3615 20.0247 22.3615C20.0247 22.3615 19.8999 21.9872 19.9623 21.7377C20.0247 21.5505 20.2742 21.4258 20.2742 21.4258Z" fill="#699635"/>
<path d="M19.6499 21.7998C19.6499 21.7998 19.6499 22.0493 19.5875 22.2988C19.8994 22.2365 20.3361 22.2988 20.3361 22.2988C20.3361 22.2988 20.0242 22.6107 19.7123 22.7355L20.0242 23.0474C20.0242 23.0474 19.7747 23.1722 19.5875 23.1098C19.4004 23.0474 19.1509 22.6731 19.1509 22.6731C19.1509 22.6731 19.1509 22.2365 19.2756 22.1117C19.4004 21.7998 19.6499 21.7998 19.6499 21.7998Z" fill="#83BF4F"/>
<path d="M16.8428 17.4336V20.4278C16.8428 20.6774 16.8428 20.8645 16.9675 21.0516C17.0923 21.1764 17.2171 21.3012 17.4042 21.3635H18.1528C18.527 21.3635 18.527 21.4259 18.6518 21.6131C18.7766 21.3635 18.9637 21.3635 19.2756 21.3635H19.8994C20.0865 21.3012 20.2113 21.2388 20.2737 21.114C20.4608 20.9269 20.4608 20.6774 20.4608 20.4278V17.5584C20.4608 17.4336 20.4608 17.4336 20.5232 17.3712L20.9599 16.9346H16.3438L16.8428 17.4336Z" fill="white"/>
<path d="M18.2776 18.7436V16.9346H16.4062L16.9053 17.4336V18.7436H18.2776Z" fill="#002D62"/>
<path d="M19.0884 18.7436V16.9346H21.0222L20.5232 17.4336V18.7436H19.0884ZM18.2775 19.4921H16.8428V20.6774C16.9052 21.1764 17.2794 21.3635 17.5913 21.3635H18.2775V19.4921Z" fill="#CE1126"/>
<path d="M19.0889 19.4912H20.5236V20.6765C20.4612 21.1755 20.087 21.3626 19.7751 21.3626H19.0889V19.4912ZM17.5918 15.4365C17.0303 15.4365 16.4065 15.5613 15.9699 15.8732C15.7204 15.998 15.7204 16.0603 15.8451 16.3099L15.5332 16.4346C15.3461 16.497 15.1589 16.5594 14.9718 16.6841C14.847 16.7465 14.847 16.8089 14.7847 16.8713L15.2213 16.8089L15.1589 16.9337C15.0966 17.0584 15.0342 17.1208 14.9718 17.2456C15.0966 17.1832 15.2213 17.0584 15.3461 16.996C15.658 16.8089 16.2818 16.8089 16.5313 16.5594C16.5937 16.497 16.5313 16.4346 16.5313 16.3099C16.7184 16.2475 16.7808 16.1851 16.968 16.1851C17.5294 16.0603 17.8413 16.1851 18.0908 16.1227C18.1532 16.1227 18.2779 16.0603 18.2779 15.998L18.2156 15.7484H19.0889C19.0889 15.8732 18.9641 16.1227 19.2136 16.1851C19.4632 16.2475 19.9622 16.1227 20.3365 16.2475L20.7731 16.3722L20.7108 16.497V16.6218C20.7731 16.6841 20.8355 16.7465 20.8979 16.7465C21.0227 16.8089 21.2098 16.8713 21.3969 16.9337C21.896 17.0584 21.9584 17.0584 22.3326 17.3079C22.3326 17.2456 22.1455 16.996 22.0831 16.8713L22.5198 16.9337C22.4574 16.8089 22.2079 16.6841 22.0831 16.6218L21.5217 16.4346C21.5841 16.3099 21.6465 16.2475 21.5841 16.1851C21.5217 16.0603 21.0227 15.8108 20.8979 15.8108C20.7108 15.7484 20.4612 15.6861 20.2741 15.6861C20.087 15.6237 19.7127 15.6237 19.7127 15.6237C19.7127 15.6237 19.7751 15.4365 19.6503 15.3118C19.5879 15.2494 19.4632 15.2494 19.3384 15.2494C18.9017 15.187 18.3403 15.2494 17.9037 15.2494C17.7789 15.2494 17.7165 15.2494 17.5918 15.3118V15.4365Z" fill="#002D62"/>
<path d="M16.8428 22.2361C16.5933 22.2985 16.4686 22.3609 16.219 22.4856C16.1567 22.3609 16.0319 22.1737 15.9071 22.049L15.72 21.8618C15.5952 21.7995 15.5329 21.7995 15.4705 21.8618L15.4081 21.7371C15.2833 21.5499 15.1586 21.4252 15.0338 21.3004L14.9714 21.238L14.9091 21.1757C14.9714 21.3628 14.9714 21.4876 15.0338 21.6747C14.9714 21.6123 14.9091 21.6123 14.8467 21.5499C14.7843 21.5499 14.6595 21.4876 14.5972 21.4876L14.6595 21.5499C14.7843 21.6747 14.9091 21.8618 14.9714 22.049C15.0338 22.2361 15.1586 22.4856 15.3457 22.6104C15.3457 22.6104 15.4705 22.7352 15.5329 22.7352C15.72 22.7975 15.72 22.7352 15.7824 22.6728C15.9071 22.9223 15.9695 22.9847 16.1567 23.1718C16.3438 23.359 16.5933 23.359 16.7805 23.359C16.9052 23.359 16.9676 23.2966 17.03 23.2342C17.3419 23.0471 17.1547 22.9223 17.1547 22.7975C17.2795 22.7975 17.6538 22.6728 17.7785 22.6104C18.2776 22.548 19.1509 22.4856 19.7123 22.6104C19.7747 22.6104 20.3361 22.7975 20.3985 22.7975C20.3361 22.9223 20.3361 22.9223 20.3361 23.0471C20.3361 23.1718 20.4609 23.1718 20.5233 23.2342C20.5856 23.2966 20.648 23.2966 20.7728 23.359H21.0847C21.2718 23.2966 21.3966 23.1718 21.5213 23.1094C21.6461 22.9223 21.7085 22.7975 21.8332 22.6728L21.8956 22.7352H22.0204C22.0828 22.7352 22.1451 22.6728 22.2075 22.6104C22.3947 22.4856 22.5194 22.2361 22.5818 22.049C22.6442 21.7995 22.7689 21.6747 22.9561 21.4876C22.7066 21.4876 22.6442 21.5499 22.5194 21.6123L22.5818 21.3628C22.5818 21.3004 22.6442 21.1757 22.6442 21.1133C22.5194 21.238 22.457 21.3628 22.3323 21.4876C22.2699 21.5499 22.2075 21.6123 22.2075 21.6747C22.0828 21.7995 22.1451 21.7995 22.0828 21.8618C21.7709 21.6747 21.5837 22.1114 21.3342 22.4233C20.8975 22.1737 20.5233 22.1114 20.0242 21.9866C19.8995 21.9866 19.8371 21.9866 19.7123 21.9242C19.0885 21.8618 18.4023 21.8618 17.7785 21.9242C17.3419 22.1114 17.0924 22.1737 16.8428 22.2361Z" fill="#CE1126"/>
<path d="M18.5265 16.8096V17.1838H18.0898V17.5581H18.5265V19.0552H18.9008V17.5581H19.2751V17.1838H18.9008V16.8096H18.5265Z" fill="#EAC102"/>
<path d="M17.4043 19.3682L19.0886 18.3701L20.0243 19.6801L18.2152 20.8653L17.4043 19.3682Z" fill="#201B18"/>
<path d="M17.5913 19.0561L19.026 18.2451L19.7746 19.3056L18.2775 20.3037L17.5913 19.0561Z" fill="#C9C9C9"/>
<path d="M72.6396 15.4993H104.204C103.642 12.7545 102.457 10.197 100.835 8.01367H72.6396V15.4993ZM72.6396 22.9848V30.4704H100.835C102.457 28.2871 103.642 25.7296 104.204 22.9848H72.6396Z" fill="white"/>
<path d="M104.204 15.4995H72.6396V22.9851H104.204C104.453 21.7999 104.578 20.5523 104.578 19.2423C104.578 17.9323 104.453 16.6847 104.204 15.4995ZM72.6396 8.01391H100.835C97.4045 3.46018 91.9774 0.52832 85.8642 0.52832C80.6867 0.52832 76.0082 2.64924 72.6396 6.01775V8.01391ZM72.6396 30.4707V32.4668C76.0082 35.8354 80.6867 37.9563 85.8642 37.9563C91.9774 37.9563 97.4045 35.0244 100.835 30.4707H72.6396Z" fill="#ED4C5C"/>
<path d="M72.6398 6.01758C69.2089 9.38609 67.1504 14.0646 67.1504 19.2421C67.1504 24.4197 69.2713 29.0981 72.6398 32.4667L85.8644 19.2421L72.6398 6.01758Z" fill="#428BC1"/>
<path d="M72.1406 22.9846L74.6357 21.238L77.1309 22.9846L76.1952 20.1151L78.6904 18.3061H75.5714L74.6357 15.499L73.7001 18.3061H70.5811L73.0763 20.1151L72.1406 22.9846Z" fill="white"/>
</svg>
