<svg width="38" height="38" viewBox="0 0 38 38" fill="none" xmlns="http://www.w3.org/2000/svg">
<path d="M22.4569 0.902344V15.4992H37.0538C35.5567 8.13841 29.8178 2.39946 22.4569 0.902344ZM14.9714 37.5817V22.9848H0.374451C1.87157 30.3457 7.61052 36.0846 14.9714 37.5817Z" fill="#C94747"/>
<path d="M22.4569 22.9848V37.5817C29.8178 36.0846 35.5567 30.3457 37.0538 22.9848H22.4569ZM0.374451 15.4992H14.9714V0.902344C7.61052 2.39946 1.87157 8.13841 0.374451 15.4992Z" fill="#2A5F9E"/>
<path d="M37.0537 15.4995H22.4568V0.9026C21.2715 0.65308 20.024 0.52832 18.714 0.52832C17.404 0.52832 16.1564 0.65308 14.9712 0.9026V15.4995H0.374279C0.12476 16.6847 0 17.9323 0 19.2423C0 20.5523 0.12476 21.7999 0.374279 22.9851H14.9712V37.582C16.1564 37.8315 17.404 37.9563 18.714 37.9563C20.024 37.9563 21.2715 37.8315 22.4568 37.582V22.9851H37.0537C37.3032 21.7999 37.4279 20.5523 37.4279 19.2423C37.4279 17.9323 37.3032 16.6847 37.0537 15.4995Z" fill="#F9F9F9"/>
<path d="M16.8427 17.558C16.8427 17.558 16.5931 17.4956 16.3436 17.4956C16.5308 17.2461 16.5931 16.7471 16.5931 16.7471C16.5931 16.7471 16.1565 16.9966 16.0317 17.2461C15.9693 17.059 15.7822 16.8718 15.7822 16.8718C15.7822 16.8718 15.5951 17.1213 15.5951 17.3085C15.5951 17.4956 15.907 17.8075 15.907 17.8075C15.907 17.8075 16.2812 17.9323 16.5308 17.8699C16.7179 17.8699 16.8427 17.558 16.8427 17.558Z" fill="#699635"/>
<path d="M16.4683 18.1823C16.4683 18.1823 16.2188 18.1823 15.9693 18.2447C16.0317 17.9328 15.9693 17.4961 15.9693 17.4961C15.9693 17.4961 15.6574 17.808 15.5326 18.1199L15.2207 17.808C15.2207 17.808 15.096 18.0575 15.1583 18.2447C15.2207 18.4318 15.595 18.6813 15.595 18.6813C15.595 18.6813 16.0317 18.6813 16.2188 18.5566C16.4059 18.4942 16.4683 18.1823 16.4683 18.1823" fill="#83BF4F"/>
<path d="M16.2815 18.869C16.2815 18.869 16.032 18.9314 15.8448 19.0562C15.8448 18.7443 15.6577 18.3076 15.6577 18.3076C15.6577 18.3076 15.4082 18.7443 15.4082 18.9938C15.221 18.869 15.0339 18.8067 15.0339 18.8067C15.0339 18.8067 14.9715 19.1186 15.0963 19.2433C15.221 19.4305 15.5953 19.5552 15.5953 19.5552C15.5953 19.5552 15.9696 19.4305 16.1567 19.3057C16.2815 19.1186 16.2815 18.869 16.2815 18.869" fill="#699635"/>
<path d="M16.2191 19.5538C16.2191 19.5538 15.9696 19.6786 15.8448 19.8034C15.7824 19.4915 15.4705 19.1172 15.4705 19.1172C15.4705 19.1172 15.3458 19.5538 15.4082 19.8657C15.221 19.8657 14.9715 19.8034 14.9715 19.8034C14.9715 19.8034 14.9715 20.1153 15.1586 20.24C15.3458 20.3648 15.7201 20.4272 15.7201 20.4272C15.7201 20.4272 16.0943 20.24 16.1567 20.0529C16.3439 19.8657 16.2191 19.5538 16.2191 19.5538" fill="#83BF4F"/>
<path d="M16.406 20.2399C16.406 20.2399 16.2189 20.427 16.0941 20.6142C15.9694 20.3646 15.5951 20.0527 15.5951 20.0527C15.5951 20.0527 15.5951 20.5518 15.7199 20.8013H15.2832C15.2832 20.8013 15.3456 21.0508 15.5951 21.1756C15.7822 21.238 16.2189 21.1756 16.2189 21.1756C16.2189 21.1756 16.5308 20.8637 16.5932 20.6765C16.5308 20.4894 16.406 20.2399 16.406 20.2399" fill="#699635"/>
<path d="M16.7177 20.8643C16.7177 20.8643 16.5929 21.1138 16.5305 21.3009C16.3434 21.0514 15.9067 20.9266 15.9067 20.9266C15.9067 20.9266 16.0315 21.3633 16.2186 21.6128C16.0315 21.6752 15.782 21.7376 15.782 21.7376C15.782 21.7376 15.9691 21.9871 16.1563 21.9871C16.3434 21.9871 16.7177 21.8623 16.7177 21.8623C16.7177 21.8623 16.9048 21.4881 16.9048 21.3009C16.9672 21.0514 16.7177 20.8643 16.7177 20.8643Z" fill="#83BF4F"/>
<path d="M17.2173 21.4258C17.2173 21.4258 17.1549 21.6753 17.1549 21.8624C16.9054 21.6753 16.4063 21.6753 16.4063 21.6753C16.4063 21.6753 16.6558 22.0496 16.9054 22.2367C16.7182 22.2991 16.5311 22.4862 16.5311 22.4862C16.5311 22.4862 16.7806 22.6734 16.9677 22.6734C17.1549 22.6734 17.4668 22.3615 17.4668 22.3615C17.4668 22.3615 17.5915 21.9872 17.5292 21.7377C17.4668 21.5505 17.2173 21.4258 17.2173 21.4258Z" fill="#699635"/>
<path d="M17.8409 21.7998C17.8409 21.7998 17.8409 22.0493 17.9033 22.2988C17.5914 22.2365 17.1547 22.2988 17.1547 22.2988C17.1547 22.2988 17.4666 22.6107 17.7785 22.7355L17.4666 23.0474C17.4666 23.0474 17.7161 23.1722 17.9033 23.1098C18.0904 23.0474 18.3399 22.6731 18.3399 22.6731C18.3399 22.6731 18.3399 22.2365 18.2152 22.1117C18.0904 21.9869 17.8409 21.7998 17.8409 21.7998Z" fill="#83BF4F"/>
<path d="M20.6483 17.558C20.6483 17.558 20.8978 17.4956 21.1474 17.4956C20.9602 17.2461 20.8978 16.7471 20.8978 16.7471C20.8978 16.7471 21.3345 16.9966 21.4593 17.2461C21.5216 17.059 21.7088 16.8718 21.7088 16.8718C21.7088 16.8718 21.8959 17.059 21.8959 17.3085C21.8959 17.4956 21.584 17.8075 21.584 17.8075C21.584 17.8075 21.2097 17.9323 20.9602 17.8699C20.7107 17.8075 20.6483 17.558 20.6483 17.558" fill="#699635"/>
<path d="M21.0222 18.1823C21.0222 18.1823 21.2717 18.1823 21.5213 18.2447C21.3965 17.9328 21.5213 17.4961 21.5213 17.4961C21.5213 17.4961 21.8332 17.808 21.9579 18.1199L22.2698 17.808C22.2698 17.808 22.3946 18.0575 22.3322 18.2447C22.2698 18.4318 21.8955 18.6813 21.8955 18.6813C21.8955 18.6813 21.4589 18.6813 21.2717 18.5566C21.0846 18.4942 21.0222 18.1823 21.0222 18.1823Z" fill="#83BF4F"/>
<path d="M21.2095 18.869C21.2095 18.869 21.459 18.9314 21.6461 19.0562C21.6461 18.7443 21.8333 18.3076 21.8333 18.3076C21.8333 18.3076 22.0828 18.7443 22.0828 18.9938C22.2699 18.869 22.4571 18.8067 22.4571 18.8067C22.4571 18.8067 22.5195 19.1186 22.3947 19.2433C22.2699 19.4305 21.8957 19.5552 21.8957 19.5552C21.8957 19.5552 21.5214 19.4305 21.3342 19.3057C21.2095 19.1186 21.2095 18.869 21.2095 18.869" fill="#699635"/>
<path d="M21.2716 19.5538C21.2716 19.5538 21.5212 19.6786 21.6459 19.8034C21.7083 19.4915 22.0202 19.1172 22.0202 19.1172C22.0202 19.1172 22.145 19.5538 22.0826 19.8657C22.2697 19.8034 22.5192 19.8034 22.5192 19.8034C22.5192 19.8034 22.5192 20.1153 22.3321 20.24C22.145 20.3648 21.7707 20.4272 21.7707 20.4272C21.7707 20.4272 21.3964 20.24 21.334 20.0529C21.1469 19.8657 21.2716 19.5538 21.2716 19.5538" fill="#83BF4F"/>
<path d="M21.0846 20.2399C21.0846 20.2399 21.2717 20.427 21.3965 20.6142C21.5213 20.3646 21.8955 20.0527 21.8955 20.0527C21.8955 20.0527 21.8955 20.5518 21.7708 20.8013H22.2074C22.2074 20.8013 22.1451 21.0508 21.8955 21.1756C21.7084 21.238 21.2717 21.1756 21.2717 21.1756C21.2717 21.1756 20.9598 20.8637 20.8975 20.6765C20.8351 20.4894 21.0846 20.2399 21.0846 20.2399" fill="#699635"/>
<path d="M20.7728 20.8643C20.7728 20.8643 20.8976 21.1138 20.96 21.3009C21.1471 21.0514 21.5838 20.9266 21.5838 20.9266C21.5838 20.9266 21.459 21.3633 21.2719 21.6128C21.459 21.6752 21.7085 21.7376 21.7085 21.7376C21.7085 21.7376 21.5214 21.9871 21.3343 21.9871C21.1471 21.9871 20.7728 21.8623 20.7728 21.8623C20.7728 21.8623 20.5857 21.4881 20.5857 21.3009C20.5233 21.0514 20.7728 20.8643 20.7728 20.8643Z" fill="#83BF4F"/>
<path d="M20.2741 21.4258C20.2741 21.4258 20.3365 21.6753 20.3365 21.8624C20.586 21.6753 21.0851 21.6753 21.0851 21.6753C21.0851 21.6753 20.8355 22.0496 20.586 22.2367C20.7732 22.2991 20.9603 22.4862 20.9603 22.4862C20.9603 22.4862 20.7108 22.6734 20.5236 22.6734C20.3365 22.6734 20.0246 22.3615 20.0246 22.3615C20.0246 22.3615 19.8998 21.9872 19.9622 21.7377C20.0246 21.5505 20.2741 21.4258 20.2741 21.4258" fill="#699635"/>
<path d="M19.6497 21.7998C19.6497 21.7998 19.6497 22.0493 19.5873 22.2988C19.8992 22.2365 20.3359 22.2988 20.3359 22.2988C20.3359 22.2988 20.024 22.6107 19.7121 22.7355L20.024 23.0474C20.024 23.0474 19.7745 23.1722 19.5873 23.1098C19.4002 23.0474 19.1507 22.6731 19.1507 22.6731C19.1507 22.6731 19.1507 22.2365 19.2754 22.1117C19.4002 21.7998 19.6497 21.7998 19.6497 21.7998Z" fill="#83BF4F"/>
<path d="M16.8429 17.4336V20.4278C16.8429 20.6774 16.8429 20.8645 16.9677 21.0516C17.0924 21.1764 17.2172 21.3012 17.4043 21.3635H18.1529C18.5272 21.3635 18.5272 21.4259 18.6519 21.6131C18.7767 21.3635 18.9638 21.3635 19.2757 21.3635H19.8995C20.0867 21.3012 20.2114 21.2388 20.2738 21.114C20.4609 20.9269 20.4609 20.6774 20.4609 20.4278V17.5584C20.4609 17.4336 20.4609 17.4336 20.5233 17.3712L20.96 16.9346H16.3439L16.8429 17.4336" fill="white"/>
<path d="M18.2777 18.7436V16.9346H16.4063L16.9054 17.4336V18.7436H18.2777Z" fill="#002D62"/>
<path d="M19.0882 18.7436V16.9346H21.022L20.523 17.4336V18.7436H19.0882ZM18.2773 19.4921H16.8426V20.6774C16.9049 21.1764 17.2792 21.3635 17.5911 21.3635H18.2773V19.4921Z" fill="#CE1126"/>
<path d="M19.0888 19.4912H20.5235V20.6765C20.4611 21.1755 20.0869 21.3626 19.775 21.3626H19.0888V19.4912V19.4912ZM17.5917 15.4365C17.0303 15.4365 16.4065 15.5613 15.9698 15.8732C15.7203 15.998 15.7203 16.0603 15.845 16.3099L15.5331 16.4346C15.346 16.497 15.1589 16.5594 14.9717 16.6841C14.847 16.7465 14.847 16.8089 14.7846 16.8713L15.2212 16.8089L15.1589 16.9337C15.0965 17.0584 15.0341 17.1208 14.9717 17.2456C15.0965 17.1832 15.2212 17.0584 15.346 16.996C15.6579 16.8089 16.2817 16.8089 16.5312 16.5594C16.5936 16.497 16.5312 16.4346 16.5312 16.3099C16.7184 16.2475 16.7807 16.1851 16.9679 16.1851C17.5293 16.0603 17.8412 16.1851 18.0907 16.1227C18.1531 16.1227 18.2779 16.0603 18.2779 15.998L18.2155 15.7484H19.0888C19.0888 15.8732 18.964 16.1227 19.2135 16.1851C19.4631 16.2475 19.9621 16.1227 20.3364 16.2475L20.773 16.3722L20.7107 16.497V16.6218C20.773 16.6841 20.8354 16.7465 20.8978 16.7465C21.0226 16.8089 21.2097 16.8713 21.3968 16.9337C21.8959 17.0584 21.9583 17.0584 22.3325 17.3079C22.3325 17.2456 22.1454 16.996 22.083 16.8713L22.5197 16.9337C22.4573 16.8089 22.2078 16.6841 22.083 16.6218L21.5216 16.4346C21.584 16.3099 21.6464 16.2475 21.584 16.1851C21.5216 16.0603 21.0226 15.8108 20.8978 15.8108C20.7107 15.7484 20.4611 15.6861 20.274 15.6861C20.0869 15.6237 19.7126 15.6237 19.7126 15.6237C19.7126 15.6237 19.775 15.4365 19.6502 15.3118C19.5878 15.2494 19.4631 15.2494 19.3383 15.2494C18.9016 15.187 18.3402 15.2494 17.9036 15.2494C17.7788 15.2494 17.7164 15.2494 17.5917 15.3118V15.4365" fill="#002D62"/>
<path d="M16.8428 22.2361C16.5933 22.2985 16.4686 22.3609 16.219 22.4856C16.1567 22.3609 16.0319 22.1737 15.9071 22.049L15.72 21.8618C15.5952 21.7995 15.5329 21.7995 15.4705 21.8618L15.4081 21.7371C15.2833 21.5499 15.1586 21.4252 15.0338 21.3004L14.9714 21.238L14.9091 21.1757C14.9714 21.3628 14.9714 21.4876 15.0338 21.6747C14.9714 21.6123 14.9091 21.6123 14.8467 21.5499C14.7843 21.5499 14.6595 21.4876 14.5972 21.4876L14.6595 21.5499C14.7843 21.6747 14.9091 21.8618 14.9714 22.049C15.0338 22.2361 15.1586 22.4856 15.3457 22.6104C15.3457 22.6104 15.4705 22.7352 15.5329 22.7352C15.72 22.7975 15.72 22.7352 15.7824 22.6728C15.9071 22.9223 15.9695 22.9847 16.1567 23.1718C16.3438 23.359 16.5933 23.359 16.7805 23.359C16.9052 23.359 16.9676 23.2966 17.03 23.2342C17.3419 23.0471 17.1547 22.9223 17.1547 22.7975C17.2795 22.7975 17.6538 22.6728 17.7785 22.6104C18.2776 22.548 19.1509 22.4856 19.7123 22.6104C19.7747 22.6104 20.3361 22.7975 20.3985 22.7975C20.3361 22.9223 20.3361 22.9223 20.3361 23.0471C20.3361 23.1718 20.4609 23.1718 20.5233 23.2342C20.5856 23.2966 20.648 23.2966 20.7728 23.359H21.0847C21.2718 23.2966 21.3966 23.1718 21.5213 23.1094C21.6461 22.9223 21.7085 22.7975 21.8332 22.6728L21.8956 22.7352H22.0204C22.0828 22.7352 22.1451 22.6728 22.2075 22.6104C22.3947 22.4856 22.5194 22.2361 22.5818 22.049C22.6442 21.7995 22.7689 21.6747 22.9561 21.4876C22.7066 21.4876 22.6442 21.5499 22.5194 21.6123L22.5818 21.3628C22.5818 21.3004 22.6442 21.1757 22.6442 21.1133C22.5194 21.238 22.457 21.3628 22.3323 21.4876C22.2699 21.5499 22.2075 21.6123 22.2075 21.6747C22.0828 21.7995 22.1451 21.7995 22.0828 21.8618C21.7709 21.6747 21.5837 22.1114 21.3342 22.4233C20.8975 22.1737 20.5233 22.1114 20.0242 21.9866C19.8995 21.9866 19.8371 21.9866 19.7123 21.9242C19.0885 21.8618 18.4023 21.8618 17.7785 21.9242C17.3419 22.1114 17.0924 22.1737 16.8428 22.2361" fill="#CE1126"/>
<path d="M18.5267 16.8096V17.1838H18.0901V17.5581H18.5267V19.0552H18.901V17.5581H19.2753V17.1838H18.901V16.8096H18.5267Z" fill="#EAC102"/>
<path d="M17.4045 19.3682L19.0888 18.3701L20.0245 19.6801L18.2155 20.8653L17.4045 19.3682Z" fill="#201B18"/>
<path d="M17.5913 19.0561L19.026 18.2451L19.7746 19.3056L18.2775 20.3037L17.5913 19.0561Z" fill="#C9C9C9"/>
</svg>
