<svg width="38" height="39" viewBox="0 0 38 39" fill="none" xmlns="http://www.w3.org/2000/svg">
<path d="M0.000488281 19.6693C0.000488281 23.3497 1.06095 26.7806 2.86996 29.6501H34.4966C36.3056 26.7806 37.3661 23.3497 37.3661 19.6693C37.3661 15.9889 36.3056 12.558 34.4966 9.68848H2.86996C1.06095 12.558 0.000488281 15.9889 0.000488281 19.6693Z" fill="#FFCE31"/>
<path d="M34.5591 9.68827C31.2529 4.44835 25.3892 0.955078 18.7146 0.955078C12.0399 0.955078 6.17622 4.44835 2.87009 9.68827H34.5591ZM2.87009 29.6498C6.17622 34.8897 12.0399 38.383 18.7146 38.383C25.3892 38.383 31.2529 34.8897 34.5591 29.6498H2.87009Z" fill="#ED4C5C"/>
<path d="M4.4917 17.6104H6.48785V18.7332H4.4917V17.6104ZM4.4917 25.8445H6.55023V26.905H4.4917V25.8445Z" fill="#C8B100"/>
<path d="M4.30464 24.0977C4.1175 24.2224 3.99274 24.3472 3.99274 24.4096C3.99274 24.4719 4.05512 24.5343 4.17988 24.5967C4.30464 24.6591 4.4294 24.7838 4.36702 24.9086C4.49178 24.7838 4.55416 24.6591 4.55416 24.5343C4.55416 24.3472 4.4294 24.16 4.30464 24.0977" fill="#ED4C5C"/>
<path d="M4.80371 18.7334H6.23845V25.8447H4.80371V18.7334Z" fill="white"/>
<path d="M7.73545 21.3534C7.42355 21.2287 6.86213 21.1039 6.23833 21.1039C6.05119 21.1039 5.80167 21.1039 5.55215 21.1663C4.67884 21.291 3.99266 21.6653 4.05504 21.9148L3.74314 21.2287C3.68076 20.9168 4.42932 20.5425 5.36501 20.3553C5.67691 20.293 5.98881 20.293 6.23833 20.293C6.86213 20.293 7.42355 20.3553 7.73545 20.4801V21.3534" fill="#ED4C5C"/>
<path d="M4.80419 22.2896C4.42991 22.2896 4.11801 22.1648 4.11801 21.9777C4.11801 21.8529 4.24277 21.6658 4.49229 21.541H4.86657L4.80419 22.2896ZM6.23893 21.7282C6.48845 21.7905 6.67559 21.8529 6.80035 21.9153C6.86273 21.9777 6.61321 22.2272 6.23893 22.4143V21.7282" fill="#ED4C5C"/>
<path d="M3.86825 23.6617C3.80587 23.5369 4.24253 23.2874 4.80395 23.1003C5.05347 23.0379 5.24061 22.9131 5.5525 22.7884C6.30106 22.4765 6.92486 22.0398 6.8001 21.915L6.92486 22.6636C6.98724 22.7884 6.4882 23.1626 5.73964 23.5369C5.49013 23.6617 5.05347 23.8488 4.80395 23.9112C4.36729 24.036 3.99301 24.2855 3.99301 24.3479L3.86825 23.6617" fill="#ED4C5C"/>
<path d="M17.903 17.6104H19.8991V18.7332H17.903V17.6104ZM17.8406 25.8445H19.8991V26.905H17.8406V25.8445Z" fill="#C8B100"/>
<path d="M20.0868 24.0977C20.274 24.2224 20.3987 24.3472 20.3987 24.4096C20.3987 24.4719 20.3364 24.5343 20.2116 24.5967C20.0868 24.7215 19.9621 24.9086 20.0244 24.971C19.8997 24.8462 19.8373 24.7215 19.8373 24.5967C19.8373 24.3472 19.9621 24.16 20.0868 24.0977" fill="#ED4C5C"/>
<path d="M18.1531 18.7334H19.5878V25.8447H18.1531V18.7334Z" fill="white"/>
<path d="M16.6564 21.3534C16.9683 21.2287 17.5297 21.1039 18.1535 21.1039C18.3407 21.1039 18.5902 21.1039 18.8397 21.1663C19.713 21.291 20.3992 21.6653 20.3368 21.9148L20.6487 21.1663C20.7111 20.8544 19.9625 20.4801 19.0268 20.293H18.1535C17.5297 20.293 16.9683 20.3553 16.6564 20.4801V21.3534" fill="#ED4C5C"/>
<path d="M19.5893 22.2886C19.9635 22.2886 20.2754 22.1638 20.2754 21.9767C20.2754 21.8519 20.1507 21.6648 19.9012 21.54H19.5269L19.5893 22.2886ZM18.1545 21.7272C17.905 21.7896 17.7179 21.8519 17.5931 21.9143C17.5307 21.9767 17.7802 22.2262 18.1545 22.4134V21.7272" fill="#ED4C5C"/>
<path d="M20.5236 23.6613C20.586 23.5366 20.1493 23.2871 19.5879 23.0999C19.3384 23.0375 19.1512 22.9128 18.8393 22.788C18.0908 22.4761 17.467 22.0395 17.5917 21.9147L17.467 22.6633C17.4046 22.788 17.9036 23.1623 18.6522 23.5366C18.9017 23.6613 19.3384 23.8485 19.5879 23.9109C20.0246 24.0356 20.3988 24.3475 20.3365 24.4099L20.5236 23.6613V23.6613ZM12.1647 13.6182C13.3499 13.6182 15.7827 13.8677 16.656 14.741C15.7203 16.9867 14.2232 16.051 12.1647 16.051C10.1685 16.051 8.60904 16.9867 7.67334 14.741C8.54666 13.8677 10.9171 13.6182 12.1647 13.6182Z" fill="#ED4C5C"/>
<path d="M15.2214 16.1132C14.4728 15.6765 13.35 15.6141 12.1648 15.6141C10.9795 15.6141 9.8567 15.7389 9.10815 16.1132L9.35766 17.1736C10.0438 17.3607 11.0419 17.4855 12.1648 17.5479C13.2876 17.5479 14.2233 17.4231 14.9719 17.1736L15.2214 16.1132ZM16.2818 13.4308C16.0323 13.2437 15.5333 13.0565 15.0966 13.0565C14.9095 13.0565 14.7223 13.0565 14.5352 13.1189C14.5352 13.1189 14.1609 12.6199 13.2876 12.6199C12.9757 12.6199 12.7262 12.6823 12.4767 12.807V12.7446C12.4143 12.6199 12.2895 12.4951 12.1648 12.4951C12.04 12.4951 11.8529 12.6823 11.8529 12.807V12.8694C11.6033 12.7446 11.3538 12.6823 11.0419 12.6823C10.1686 12.6823 9.79432 13.2437 9.79432 13.1813C9.60718 13.1189 9.42004 13.1189 9.2329 13.1189C6.36343 13.1189 7.79817 15.0527 7.79817 15.0527L8.11007 14.6784C7.42389 13.8051 8.04769 13.3061 9.29528 13.3061C9.48242 13.3061 9.60718 13.3061 9.73194 13.3684C9.29528 13.9922 10.1062 14.5537 10.1062 14.5537L10.2934 14.2418C9.8567 13.9299 9.79432 12.8694 11.0419 12.8694C11.3538 12.8694 11.6033 12.9318 11.8529 13.1189C11.8529 13.1813 11.7905 14.0546 11.7281 14.1794L12.2271 14.616L12.7262 14.1794C12.6638 13.9922 12.6014 13.1813 12.6014 13.1189C12.7886 12.9942 13.1005 12.8694 13.4124 12.8694C14.7223 12.8694 14.7223 13.9299 14.1609 14.2418L14.3481 14.5537C14.3481 14.5537 15.0342 13.9922 14.7223 13.3684C14.8471 13.3684 15.0342 13.3061 15.159 13.3061C16.6561 13.3061 16.7185 14.4289 16.3442 14.6784L16.5937 15.0527C16.469 15.0527 17.1551 14.1794 16.2818 13.4308" fill="#C8B100"/>
<path d="M11.7903 12.2454C11.7903 12.0582 11.9774 11.8711 12.1646 11.8711C12.3517 11.8711 12.5388 12.0582 12.5388 12.2454C12.5388 12.4325 12.3517 12.6197 12.1646 12.6197C11.9774 12.6197 11.7903 12.4325 11.7903 12.2454Z" fill="#005BBF"/>
<path d="M12.0399 11.1865V11.3737H11.8527V11.5608H12.0399V12.1846H11.7903V12.3717H12.5389L12.6013 12.247L12.5389 12.1846H12.2894V11.5608H12.4765V11.3737H12.2894V11.1865H12.0399Z" fill="#C8B100"/>
<path d="M12.1651 17.3611C11.167 17.3611 10.2937 17.2363 9.60751 17.0492C10.2937 16.8621 11.167 16.7373 12.1651 16.7373C13.1632 16.7373 14.0365 16.8621 14.7227 17.0492C14.0989 17.2363 13.1632 17.3611 12.1651 17.3611Z" fill="#ED4C5C"/>
<path d="M12.227 28.1524C11.0417 28.1524 9.91889 27.8405 8.92081 27.4039C8.17226 27.0296 7.7356 26.3434 7.7356 25.5325V22.5382H16.7183V25.5325C16.7183 26.3434 16.2193 27.092 15.5331 27.4039C14.535 27.9029 13.4122 28.1524 12.227 28.1524ZM12.1646 17.5479H16.6559V22.5382H12.1646V17.5479Z" fill="white"/>
<path d="M12.227 25.5323C12.227 26.7175 11.2289 27.6532 9.98127 27.6532C8.73368 27.6532 7.7356 26.7175 7.7356 25.5323V22.5381H12.227V25.5323Z" fill="#ED4C5C"/>
<path d="M8.67093 27.2787C8.79569 27.3411 8.98283 27.4659 9.23235 27.5282V22.4131H8.73331L8.67093 27.2787ZM7.67285 25.4697C7.67285 26.0935 7.92237 26.5925 8.17189 26.8421V22.4131H7.67285V25.4697Z" fill="#C8B100"/>
<path d="M9.66919 27.653H10.1682V22.4131H9.66919V27.653Z" fill="#C7B500"/>
<path d="M10.6672 27.5282C10.8544 27.4659 11.1039 27.3411 11.2287 27.2787V22.4131H10.7296L10.6672 27.5282" fill="#C8B100"/>
<path d="M7.67285 17.5479H12.1642V22.5382H7.67285V17.5479Z" fill="#ED4C5C"/>
<path d="M11.7275 26.8422C11.9771 26.655 12.1642 26.2184 12.2266 25.7193V22.4756H11.7275V26.8422Z" fill="#C8B100"/>
<path d="M16.7182 22.5382V25.5325C16.7182 26.7177 15.7201 27.6534 14.4725 27.6534C13.2249 27.6534 12.2269 26.7177 12.2269 25.5325V22.5382H16.7182V22.5382ZM15.0963 18.4212C15.2835 18.7955 15.2835 19.7312 14.7221 19.544C14.8468 19.6064 14.9092 20.0431 15.0963 20.2926C15.4082 20.6668 15.7825 20.355 15.7201 19.9183C15.5954 19.2321 15.6578 18.7955 15.7825 18.1093C15.7825 18.1717 16.0944 18.1717 16.2192 18.0469C16.1568 18.234 16.0944 18.4836 16.2192 18.4836C16.0944 18.6707 15.7825 18.9826 15.7201 19.1697C15.6578 19.6064 16.3439 20.4173 15.5954 20.6045C15.0963 20.7292 15.4082 21.1035 15.5954 21.2906C15.5954 21.2906 15.3459 22.1016 15.4706 22.0392C14.9716 22.2263 15.0963 21.7897 15.0963 21.7897C15.3459 21.0411 14.6597 20.9787 14.7221 20.854C14.0983 20.7916 14.7844 21.4154 14.223 21.4154C14.0983 21.4154 13.8487 21.5402 13.8487 21.5402C13.1626 21.4778 13.5368 20.854 13.7864 20.9164C13.9735 20.9787 14.1606 21.2906 14.1606 20.854C14.1606 20.854 13.8487 20.3549 14.6597 20.3549C14.3478 20.3549 14.1606 20.1054 14.0359 19.7935C13.9111 19.8559 13.724 20.1678 13.0378 20.2302C13.0378 20.2302 12.8507 19.544 13.0378 19.6688C13.2873 19.7935 13.4121 19.7935 13.6616 19.544C13.5368 19.3569 12.7883 19.1074 12.9131 18.6707C12.9131 18.5459 13.2873 18.3588 13.2873 18.3588C13.2249 18.6707 13.4121 18.9826 13.7864 18.9826C14.2854 19.045 14.0983 18.8578 14.1606 18.7331C14.223 18.6083 14.5973 18.7955 14.4725 18.4836C14.4725 18.4212 14.0359 18.3588 14.1606 18.1717C14.4102 17.8598 14.7844 18.1093 15.0963 18.4212V18.4212ZM12.2269 27.5286L12.1021 27.2167L12.2269 26.8425L12.3516 27.2167L12.2269 27.5286Z" fill="#ED4C5C"/>
<path d="M9.04527 18.6094V18.9213H9.17003V19.1708H8.85813V19.7946H9.04527V21.167H8.67099V21.8531H11.2286V21.167H10.9167V19.7946H11.0414V19.1708H10.7295V18.9213H10.9167V18.6094H10.2929V18.9213H10.4176V19.1708H10.1057V18.4223H10.2929V18.1104H9.60669V18.4223H9.79383V19.1708H9.48193V18.9213H9.60669V18.6094H9.04527ZM16.0942 26.2821V23.1631H12.8504V26.2821L14.3476 26.9683H14.5347L16.0942 26.2821ZM14.3476 23.4126V24.4731L13.2871 23.4126H14.3476ZM13.0376 23.475L14.2852 24.7226L13.0376 25.9702V23.475ZM13.1623 26.2197L14.3476 25.0345V26.7812L13.1623 26.2197ZM14.5347 26.7188V24.9721L15.7199 26.1574L14.5347 26.7188ZM15.8447 25.9702L14.5971 24.7226L15.8447 23.475V25.9702ZM14.5347 23.4126H15.5952L14.5347 24.4731V23.4126Z" fill="#C8B100"/>
<path d="M10.7294 22.4754C10.7294 21.5397 11.3532 20.8535 12.1641 20.8535C12.975 20.8535 13.5988 21.6021 13.5988 22.4754C13.5988 23.3487 12.975 24.0973 12.1641 24.0973C11.3532 24.0973 10.7294 23.4111 10.7294 22.4754Z" fill="#ED4C5C"/>
<path d="M11.166 22.4762C11.166 21.7901 11.6027 21.291 12.1641 21.291C12.7255 21.291 13.1622 21.8524 13.1622 22.4762C13.1622 23.1624 12.7255 23.6615 12.1641 23.6615C11.6027 23.6615 11.166 23.1624 11.166 22.4762Z" fill="#005BBF"/>
<path d="M11.7281 21.665L11.4786 22.3512L11.6657 22.4136L11.541 22.6631H11.9152L11.7905 22.4136L11.9776 22.3512L11.7281 21.665V21.665ZM12.6638 21.665L12.4143 22.3512L12.6014 22.4136L12.4767 22.6631H12.8509L12.7886 22.4136L12.9757 22.3512L12.6638 21.665V21.665ZM12.2271 22.476L11.9152 23.1622L12.1024 23.2245L12.04 23.4741H12.3519L12.2895 23.2245L12.4767 23.1622L12.2271 22.476Z" fill="#C8B100"/>
</svg>
