<svg width="39" height="38" viewBox="0 0 39 38" fill="none" xmlns="http://www.w3.org/2000/svg">
<path d="M38.0739 18.8137C38.0739 10.6419 32.8963 3.71773 25.5979 1.16016V36.4672C32.8963 33.9096 38.0739 26.9854 38.0739 18.8137Z" fill="#ED4C5C"/>
<path d="M0.64624 18.8137C0.64624 26.9854 5.88615 33.9096 13.1222 36.4672V1.16016C5.88615 3.71773 0.64624 10.6419 0.64624 18.8137Z" fill="#75A843"/>
<path d="M25.5985 1.16104C23.6647 0.474865 21.5438 0.100586 19.3605 0.100586C17.1772 0.100586 15.0563 0.474865 13.1225 1.16104V36.4681C15.0563 37.1543 17.1772 37.5285 19.3605 37.5285C21.5438 37.5285 23.6647 37.1543 25.5985 36.4681V1.16104Z" fill="white"/>
<path d="M24.7872 18.6272C24.7248 18.4401 24.6625 18.6896 24.6625 18.752C24.6625 18.5648 24.6001 18.4401 24.4753 18.2529C24.2882 18.4401 24.2258 18.6896 24.2258 18.9391C24.1634 18.752 24.101 18.5648 23.9139 18.5024C24.0387 18.6896 23.9763 18.8143 23.9763 19.0015C23.9763 19.251 24.1634 19.4381 24.1634 19.6877C24.1634 19.9372 24.0387 20.1243 23.8515 20.3115V20.1243C23.2277 20.3738 23.3525 20.6857 23.3525 21.2472C23.3525 21.8086 23.0406 21.6838 22.6663 21.9957C22.7287 21.871 22.7287 21.6838 22.6663 21.5591C22.6663 21.9333 22.1673 21.9333 22.1049 22.2452C22.0425 22.37 22.1049 22.6195 21.9177 22.6819C21.793 22.7443 21.6058 22.869 21.6058 22.9938C21.4811 22.9314 21.3563 22.9314 21.1692 22.9314C21.2316 22.869 21.2939 22.869 21.3563 22.8067C20.7325 22.4948 20.5454 23.1809 19.984 23.2433C19.7968 23.2433 19.3602 22.9938 19.3602 23.2433C19.9216 23.2433 20.1711 23.7424 20.6078 23.7424C20.982 23.7424 21.2939 23.4305 21.6682 23.4305C21.6058 23.4305 21.4187 23.3057 21.2316 23.3057C21.5435 23.1186 21.7306 22.7443 22.1049 22.7443C22.7287 22.7443 23.0406 22.6195 23.2277 21.9957C23.1653 21.9957 23.103 21.9957 23.0406 22.0581C23.0406 21.8086 23.2901 21.4967 23.5396 21.3719C24.1634 21.2472 24.101 20.7481 24.4753 20.3115C24.3506 20.3115 24.2258 20.3738 24.101 20.4986C24.101 20.1243 24.0387 19.75 24.3506 19.5005C24.9744 19.1886 24.912 19.0639 24.7872 18.6272V18.6272ZM13.9331 18.6272C13.8084 19.1262 13.746 19.251 14.245 19.5629C14.6193 19.8124 14.4945 20.1867 14.4945 20.561C14.3698 20.4362 14.3074 20.3738 14.1203 20.3738C14.4945 20.7481 14.4322 21.3095 15.056 21.4343C15.2431 21.5591 15.555 21.871 15.555 22.1205C15.4926 22.1205 15.4302 22.0581 15.3679 22.0581C15.555 22.6819 15.8669 22.8067 16.4907 22.8067C16.865 22.8067 17.0521 23.1809 17.364 23.3681C17.1769 23.3681 16.9897 23.4305 16.9274 23.4928C17.3016 23.4928 17.6135 23.8671 17.9878 23.8047C18.4245 23.8047 18.7364 23.3057 19.2354 23.3057C19.2354 23.0562 18.7987 23.3057 18.6116 23.3057C18.1126 23.1809 17.9254 22.5571 17.2393 22.8067C17.3016 22.869 17.364 22.9314 17.4264 22.9314C17.3016 22.9314 17.1145 22.869 16.9897 22.9938C16.9274 22.869 16.8026 22.7443 16.6778 22.6819C16.5531 22.5571 16.5531 22.37 16.4907 22.2452C16.3659 21.9333 15.9293 21.871 15.9293 21.5591C15.8669 21.6838 15.8669 21.871 15.9293 21.9957C15.555 21.6838 15.2431 21.8086 15.2431 21.2472C15.2431 20.7481 15.3679 20.3738 14.7441 20.1243V20.3115C14.5569 20.1243 14.4322 19.9996 14.4322 19.6877C14.4322 19.4381 14.6817 19.251 14.6193 19.0015C14.6193 18.8143 14.5569 18.6896 14.6817 18.5024C14.4945 18.5648 14.4322 18.752 14.3698 18.9391C14.3698 18.6896 14.3074 18.4401 14.1203 18.2529C14.0579 18.3777 13.9955 18.5648 13.9331 18.752C13.9955 18.6272 13.9331 18.4401 13.9331 18.6272V18.6272Z" fill="#75A843"/>
<path d="M21.0445 22.3708C20.9198 22.3708 20.8574 22.246 20.795 22.1836C20.795 22.0589 21.294 21.9341 21.3564 21.9341V21.8093C20.5455 22.0589 18.1127 22.246 17.6136 21.3727C17.3641 21.747 16.9274 21.4974 16.4908 21.1855C16.5532 21.3103 16.8027 21.9341 16.8027 21.8717C16.9274 21.9341 17.7384 22.1212 17.7384 22.3084L17.5512 22.4955C18.8612 22.9322 19.6722 23.0569 21.0445 22.3708Z" fill="#428BC1"/>
<path d="M20.2335 22.3697C20.2958 22.3073 20.2958 22.2449 20.2958 22.1202L20.2335 21.933C20.3582 21.8083 20.2335 21.4964 20.0463 21.5588C19.9216 21.6211 19.9839 21.6211 19.8592 21.5588C19.7968 21.5588 19.7968 21.4964 19.7344 21.4964H18.6116C18.4868 21.4964 18.4868 21.434 18.3621 21.434C18.2373 21.3716 18.1749 21.4964 18.1125 21.5588C18.1125 21.6835 18.1749 21.6835 18.1749 21.7459C18.1749 21.8083 18.1125 21.8707 18.1125 21.9954C18.1125 22.1202 18.1749 22.1826 18.2373 22.2449C17.9878 22.4321 18.2373 22.744 18.4868 22.5568C18.5492 22.6816 18.7363 22.6816 18.9235 22.6816H19.6097C19.7344 22.6816 19.9839 22.744 20.0463 22.5568C20.2335 22.8687 20.483 22.4945 20.2335 22.3697Z" fill="#ED4C5C"/>
<path d="M22.2296 20.7487C21.7305 20.1249 21.481 21.0606 20.9196 20.9983C21.0444 20.2497 19.9215 20.4992 19.6096 20.6864C19.672 20.624 19.7344 20.4992 19.7968 20.3745C19.5472 20.3745 19.2353 20.4992 19.0482 20.3121C18.6739 20.0626 18.1749 19.9378 17.863 20.3745C17.6135 20.0002 16.9273 19.6259 16.553 20.0002C16.553 19.6259 16.1787 19.0645 15.7421 19.1269C15.243 19.1892 15.4302 19.813 15.6797 20.0626C15.8668 20.2497 16.1163 20.3121 16.3659 20.3121C16.3659 20.4368 16.4282 20.4992 16.4906 20.5616C16.8025 20.8111 17.4263 20.8735 17.7382 20.624C17.7382 21.2478 18.9858 21.2478 19.2977 20.9359C19.173 21.2478 19.0482 21.8716 19.4849 21.8716C19.8591 21.8716 19.7344 21.4973 20.0463 21.3725C20.2958 21.2478 20.6077 21.1854 20.8572 21.3102C21.2939 21.5597 22.6662 21.4973 22.2296 20.7487" fill="#428BC1"/>
<path d="M17.1149 19.1901C17.0525 19.0654 16.9277 18.9406 16.9277 18.9406C16.6782 19.003 16.6782 18.8158 16.6158 18.6287C16.5534 18.3168 16.1168 18.1921 16.1168 17.9425C16.1168 17.693 16.3663 17.4435 16.1792 17.194C15.992 16.9445 15.6801 16.8197 15.6801 16.9445C15.6177 17.0692 15.9296 17.0692 15.9296 17.3811C15.9296 17.7554 15.5554 18.0673 15.992 18.3792C16.2415 18.7535 16.2415 19.4396 16.6782 19.4396C16.8653 19.4396 17.0525 19.3773 17.1149 19.1901" fill="#75A843"/>
<path d="M18.051 18.8778C17.9262 18.6283 18.051 18.254 17.8014 18.0669C17.4895 17.8174 16.8657 18.3164 16.8034 17.6926C16.8034 17.5679 17.4895 16.8193 17.6143 16.7569C17.8014 16.5074 17.7391 16.0707 17.5519 15.946C17.3024 15.8212 17.24 15.946 17.0529 16.1955C17.1153 16.2579 17.3648 16.3826 17.3648 16.445C17.1776 16.8817 16.6162 16.9441 16.4915 17.3807C16.3667 17.6926 16.4291 18.1917 16.741 18.3788C16.9281 18.5036 17.0529 18.5036 17.24 18.5036C17.8014 18.4412 17.4895 18.5659 17.5519 18.6907C17.5519 18.8155 17.7391 19.2521 18.051 18.8778V18.8778ZM16.1796 15.8212C16.1796 16.1955 16.5538 16.1331 16.8034 16.0707C16.8034 15.946 16.8034 15.8212 16.8657 15.6965C16.741 15.7588 16.5538 15.7588 16.4915 15.6965C16.3043 15.5717 16.9281 15.3222 16.8657 15.3222C16.8657 15.3222 16.2419 15.6341 16.4915 15.2598C16.5538 15.135 16.6786 15.0103 16.741 14.8855C16.8034 14.7608 16.5538 14.8855 16.5538 14.8855C16.4915 14.8855 16.4291 14.8855 16.3667 14.9479C15.9924 15.2598 16.1172 15.4469 16.1796 15.8212" fill="#75A843"/>
<path d="M22.791 15.8204C22.4791 15.3837 21.2939 13.949 19.6097 13.8242C19.4225 13.8242 18.9235 14.0114 18.7363 14.0737C18.1749 14.448 19.3601 14.7599 19.4225 15.0094C19.4225 15.1342 19.4849 15.1966 19.4849 15.3213C19.2978 15.0094 19.1106 14.8223 19.0482 14.6975C18.7363 14.8223 18.2373 14.6352 18.1749 14.3233C18.1125 14.448 18.1125 14.5104 17.9878 14.6352C17.9878 14.448 17.9254 14.448 17.863 14.3233C17.863 14.5104 17.863 14.7599 17.6759 14.8223C17.7383 14.6975 17.6759 14.5728 17.6135 14.448C17.6135 14.6352 17.6135 14.7599 17.4887 14.8847C17.5511 14.7599 17.4264 14.6975 17.4264 14.5728C17.364 15.0718 16.6778 15.259 17.364 15.4461C17.6135 15.5085 17.7383 15.4461 17.9878 15.5709C18.0502 15.6332 18.1749 15.758 18.1749 15.6956C18.1749 15.758 17.9254 16.0075 18.1125 16.0699C18.0502 16.1323 17.863 16.5066 17.863 16.5066C18.0502 16.5066 17.9254 16.6313 17.8006 16.7561C17.6135 17.068 17.8006 17.3799 17.863 17.7542C17.863 17.6294 18.0502 17.8165 18.0502 18.0037C18.0502 18.2532 18.2997 18.378 18.3621 18.5651C18.0502 18.2532 17.9878 18.5651 18.3621 18.7522C18.0502 18.7522 17.9878 18.9394 18.2997 19.0641C17.5511 19.0641 18.1749 19.376 18.2997 19.4384C18.7987 19.5632 19.173 19.1889 19.173 19.1265C19.173 19.1265 20.1711 20.1246 20.2335 20.1246C20.2958 20.1246 20.7949 19.8751 20.9196 19.9998C21.0444 20.187 21.1692 19.9998 21.2939 20.0622C21.4187 20.187 21.9177 20.0622 22.0425 19.9998C22.1049 19.9998 22.7287 19.8751 22.6039 19.7503C22.292 19.5008 21.9177 19.2513 21.6058 19.0018C21.2939 18.7522 20.982 18.5651 20.7325 18.3156C20.6077 18.1908 20.6077 17.9413 20.5454 17.7542C21.1068 18.3156 21.6682 18.6275 21.6058 17.567C21.9801 17.8789 22.7287 19.6255 22.791 19.6255C22.9782 19.6255 22.791 17.7542 22.791 17.567C23.0406 17.8165 23.0406 19.8751 23.1029 19.8751C23.4148 19.9375 23.8515 17.1927 22.791 15.8204" fill="#89664C"/>
<path d="M18.3 19.0016C18.2376 19.0016 17.9257 18.5649 17.9257 18.5025C18.1128 19.2511 17.3643 18.8144 17.5514 18.5025C17.3019 18.4401 16.6781 18.8144 16.9276 19.1887C16.8029 19.4382 17.8009 19.2511 17.8633 19.1263C18.1128 19.6877 18.7366 19.0639 18.3 19.0016V19.0016ZM21.2318 20.873C21.5437 20.4363 20.2338 20.3115 20.3585 19.8125C20.1714 19.9373 19.9219 20.3739 19.6723 20.2492C19.5476 20.1868 19.0485 20.4987 19.2981 20.6858C19.2981 20.4363 19.4228 20.6234 19.61 20.5611C19.5476 20.7482 19.3604 20.9353 19.6723 21.0601C19.5476 20.6858 20.0466 20.873 19.9842 20.6858C19.8595 20.5611 20.4209 20.5611 20.4833 20.5611C20.6704 20.5611 21.2942 20.7482 21.0447 20.9353C21.0447 20.9353 21.1695 20.9353 21.2318 20.873V20.873ZM17.0524 15.5083C16.99 15.633 16.7405 15.8202 16.7405 16.0073C16.7405 16.1321 17.0524 16.444 17.1771 16.2568C16.8029 16.0073 17.2395 15.8202 17.4267 15.8202C17.489 15.8202 17.489 15.9449 17.489 15.9449C17.5514 16.0073 18.0505 15.8202 17.9881 15.6954C18.0505 15.4459 17.2395 15.4459 17.0524 15.5083Z" fill="#FFCE31"/>
</svg>
