<svg width="38" height="38" viewBox="0 0 38 38" fill="none" xmlns="http://www.w3.org/2000/svg">
<path d="M5.63965 15.4993H37.2039C36.6425 12.7545 35.4572 10.197 33.8354 8.01367H5.63965V15.4993ZM5.63965 22.9848V30.4704H33.8354C35.4572 28.2871 36.6425 25.7296 37.2039 22.9848H5.63965Z" fill="white"/>
<path d="M37.2039 15.4995H5.63965V22.9851H37.2039C37.4534 21.7999 37.5782 20.5523 37.5782 19.2423C37.5782 17.9323 37.4534 16.6847 37.2039 15.4995V15.4995ZM5.63965 8.01391H33.8354C30.4045 3.46018 24.9774 0.52832 18.8642 0.52832C13.6867 0.52832 9.00816 2.64924 5.63965 6.01775V8.01391ZM5.63965 30.4707V32.4668C9.00816 35.8353 13.6867 37.9563 18.8642 37.9563C24.9774 37.9563 30.4045 35.0244 33.8354 30.4707H5.63965Z" fill="#ED4C5C"/>
<path d="M5.6397 6.01758C2.20881 9.38609 0.150269 14.0646 0.150269 19.2421C0.150269 24.4197 2.27119 29.0981 5.6397 32.4667L18.8642 19.2421L5.6397 6.01758Z" fill="#428BC1"/>
<path d="M5.14043 22.9846L7.63563 21.238L10.1308 22.9846L9.19512 20.1151L11.6903 18.3061H8.57133L7.63563 15.499L6.69993 18.3061H3.58093L6.07613 20.1151L5.14043 22.9846Z" fill="white"/>
</svg>
