<svg width="161" height="39" viewBox="0 0 161 39" fill="none" xmlns="http://www.w3.org/2000/svg">
<path d="M28.6947 2.86947C25.7628 1.06046 22.3943 0 18.7139 0V2.86947H28.6947Z" fill="#ED4C5C"/>
<path d="M18.7139 5.73959H32.1879C31.1275 4.67913 29.9422 3.68106 28.6947 2.87012H18.7139V5.73959Z" fill="white"/>
<path d="M18.7139 8.60775H34.496C33.8098 7.5473 33.0612 6.6116 32.2503 5.73828H18.7139V8.60775Z" fill="#ED4C5C"/>
<path d="M18.7139 11.4788H35.9931C35.5564 10.4808 35.0574 9.48269 34.496 8.60938H18.7139V11.4788Z" fill="white"/>
<path d="M18.7139 14.347H36.9288C36.6793 13.3489 36.3674 12.4132 35.9931 11.4775H18.7139V14.347Z" fill="#ED4C5C"/>
<path d="M18.7139 17.2796H37.3655C37.3031 16.2816 37.1159 15.3459 36.9288 14.4102H18.7139V17.2796Z" fill="white"/>
<path d="M37.3656 17.2783H18.714V18.7131H0C0 19.2121 -6.04197e-08 19.6488 0.0623798 20.1478H37.3656C37.4279 19.6488 37.4279 19.2121 37.4279 18.7131C37.4279 18.214 37.4279 17.715 37.3656 17.2783Z" fill="#ED4C5C"/>
<path d="M0.499159 23.0189H36.929C37.1785 22.0832 37.3033 21.1475 37.3657 20.1494H0.0625C0.12488 21.0851 0.24964 22.0832 0.499159 23.0189Z" fill="white"/>
<path d="M1.43472 25.888H35.9932C36.3675 24.9523 36.6794 24.0166 36.9289 23.0186H0.499023C0.748543 24.0166 1.06044 24.9523 1.43472 25.888Z" fill="#ED4C5C"/>
<path d="M2.93169 28.7572H34.4959C35.0573 27.8215 35.5564 26.8858 35.993 25.8877H1.43457C1.87123 26.8858 2.37027 27.8215 2.93169 28.7572Z" fill="white"/>
<path d="M5.17732 31.6263H32.2502C33.0611 30.753 33.8721 29.7549 34.4959 28.7568H2.93164C3.55544 29.8173 4.36638 30.753 5.17732 31.6263Z" fill="#ED4C5C"/>
<path d="M8.67101 34.4954H28.7573C30.0673 33.6845 31.1902 32.6864 32.2506 31.626H5.17773C6.23819 32.7488 7.42341 33.6845 8.67101 34.4954Z" fill="white"/>
<path d="M18.7141 37.4279C22.3945 37.4279 25.8254 36.3675 28.7572 34.4961H8.6709C11.6028 36.3675 15.0336 37.4279 18.7141 37.4279Z" fill="#ED4C5C"/>
<path d="M8.73319 2.86947C7.42321 3.68041 6.23799 4.67849 5.17753 5.73895C4.30421 6.61226 3.55565 7.61034 2.93186 8.60842C2.37044 9.54412 1.80902 10.4798 1.43474 11.4779C1.06046 12.4136 0.748559 13.3493 0.499039 14.3474C0.24952 15.2831 0.12476 16.2188 0.0623798 17.2168C-6.04197e-08 17.7159 0 18.2149 0 18.714H18.714V0C15.0336 0 11.665 1.06046 8.73319 2.86947Z" fill="#428BC1"/>
<path d="M14.3471 0.624023L14.659 1.55972H15.5947L14.8461 2.18352L15.0957 3.11922L14.3471 2.5578L13.5985 3.11922L13.8481 2.18352L13.0995 1.55972H14.0352L14.3471 0.624023ZM16.8423 4.36681L17.1542 5.30251H18.0899L17.3413 5.92631L17.5909 6.86201L16.8423 6.30059L16.0937 6.86201L16.3433 5.92631L15.5947 5.30251H16.5304L16.8423 4.36681ZM11.8519 4.36681L12.1638 5.30251H13.0995L12.3509 5.92631L12.6005 6.86201L11.8519 6.30059L11.1034 6.86201L11.3529 5.92631L10.6043 5.30251H11.54L11.8519 4.36681ZM14.3471 8.10961L14.659 9.0453H15.5947L14.8461 9.6691L15.0957 10.6048L14.3471 10.0434L13.5985 10.6048L13.8481 9.6691L13.0995 9.0453H14.0352L14.3471 8.10961ZM9.35671 8.10961L9.66861 9.0453H10.6043L9.85575 9.6691L10.1053 10.6048L9.35671 10.0434L8.60815 10.6048L8.85768 9.6691L8.10912 9.0453H9.04481L9.35671 8.10961ZM4.36632 8.10961L4.67822 9.0453H5.61392L4.86536 9.6691L5.11488 10.6048L4.36632 10.0434L3.61776 10.6048L3.86728 9.6691L3.11872 9.0453H4.05442L4.36632 8.10961ZM16.8423 11.8524L17.1542 12.7881H18.0899L17.3413 13.4119L17.5909 14.3476L16.8423 13.7862L16.0937 14.3476L16.3433 13.4119L15.5947 12.7881H16.5304L16.8423 11.8524ZM11.8519 11.8524L12.1638 12.7881H13.0995L12.3509 13.4119L12.6005 14.3476L11.8519 13.7862L11.1034 14.3476L11.3529 13.4119L10.6043 12.7881H11.54L11.8519 11.8524ZM6.86152 11.8524L7.17342 12.7881H8.10912L7.36056 13.4119L7.61008 14.3476L6.86152 13.7862L6.11296 14.3476L6.36248 13.4119L5.61392 12.7881H6.54962L6.86152 11.8524ZM14.3471 15.5952L14.659 16.5309H15.5947L14.8461 17.1547L15.0957 18.0904L14.3471 17.529L13.5985 18.0904L13.8481 17.1547L13.0995 16.5309H14.0352L14.3471 15.5952ZM9.35671 15.5952L9.66861 16.5309H10.6043L9.85575 17.1547L10.1053 18.0904L9.35671 17.529L8.60815 18.0904L8.85768 17.1547L8.10912 16.5309H9.04481L9.35671 15.5952ZM4.36632 15.5952L4.67822 16.5309H5.61392L4.86536 17.1547L5.11488 18.0904L4.36632 17.529L3.61776 18.0904L3.86728 17.1547L3.11872 16.5309H4.05442L4.36632 15.5952ZM6.11296 6.86201L6.86152 6.30059L7.61008 6.86201L7.29818 5.92631L8.04674 5.30251H7.11104L6.86152 4.36681L6.54962 5.30251H5.6763L6.42486 5.86393L6.11296 6.86201ZM1.12257 14.3476L1.87113 13.7862L2.61968 14.3476L2.30778 13.4119L3.05634 12.7881H2.18302L1.87113 11.8524L1.55923 12.7881H0.935427C0.935427 12.8505 0.873047 12.9129 0.873047 12.9752L1.37209 13.3495L1.12257 14.3476Z" fill="white"/>
<path d="M99.0736 19.8137C99.0736 11.6419 93.8961 4.71773 86.5977 2.16016V37.4672C93.8961 34.9096 99.0736 27.9854 99.0736 19.8137Z" fill="#ED4C5C"/>
<path d="M61.646 19.8137C61.646 27.9854 66.8859 34.9096 74.122 37.4672V2.16016C66.8859 4.71773 61.646 11.6419 61.646 19.8137Z" fill="#75A843"/>
<path d="M86.5981 2.16104C84.6643 1.47487 82.5434 1.10059 80.3601 1.10059C78.1768 1.10059 76.0558 1.47487 74.1221 2.16104V37.4681C76.0558 38.1543 78.1768 38.5285 80.3601 38.5285C82.5434 38.5285 84.6643 38.1543 86.5981 37.4681V2.16104Z" fill="white"/>
<path d="M85.7867 19.6272C85.7244 19.4401 85.662 19.6896 85.662 19.752C85.662 19.5648 85.5996 19.4401 85.4748 19.2529C85.2877 19.4401 85.2253 19.6896 85.2253 19.9391C85.1629 19.752 85.1006 19.5648 84.9134 19.5024C85.0382 19.6896 84.9758 19.8143 84.9758 20.0015C84.9758 20.251 85.1629 20.4381 85.1629 20.6877C85.1629 20.9372 85.0382 21.1243 84.851 21.3115V21.1243C84.2272 21.3738 84.352 21.6857 84.352 22.2472C84.352 22.8086 84.0401 22.6838 83.6658 22.9957C83.7282 22.871 83.7282 22.6838 83.6658 22.5591C83.6658 22.9333 83.1668 22.9333 83.1044 23.2452C83.042 23.37 83.1044 23.6195 82.9173 23.6819C82.7925 23.7443 82.6054 23.869 82.6054 23.9938C82.4806 23.9314 82.3558 23.9314 82.1687 23.9314C82.2311 23.869 82.2935 23.869 82.3558 23.8067C81.732 23.4948 81.5449 24.1809 80.9835 24.2433C80.7963 24.2433 80.3597 23.9938 80.3597 24.2433C80.9211 24.2433 81.1706 24.7424 81.6073 24.7424C81.9816 24.7424 82.2935 24.4305 82.6677 24.4305C82.6054 24.4305 82.4182 24.3057 82.2311 24.3057C82.543 24.1186 82.7301 23.7443 83.1044 23.7443C83.7282 23.7443 84.0401 23.6195 84.2272 22.9957C84.1649 22.9957 84.1025 22.9957 84.0401 23.0581C84.0401 22.8086 84.2896 22.4967 84.5391 22.3719C85.1629 22.2472 85.1006 21.7481 85.4748 21.3115C85.3501 21.3115 85.2253 21.3738 85.1006 21.4986C85.1006 21.1243 85.0382 20.75 85.3501 20.5005C85.9739 20.1886 85.9115 20.0639 85.7867 19.6272ZM74.9326 19.6272C74.8079 20.1262 74.7455 20.251 75.2445 20.5629C75.6188 20.8124 75.494 21.1867 75.494 21.561C75.3693 21.4362 75.3069 21.3738 75.1198 21.3738C75.494 21.7481 75.4317 22.3095 76.0555 22.4343C76.2426 22.5591 76.5545 22.871 76.5545 23.1205C76.4921 23.1205 76.4297 23.0581 76.3674 23.0581C76.5545 23.6819 76.8664 23.8067 77.4902 23.8067C77.8645 23.8067 78.0516 24.1809 78.3635 24.3681C78.1764 24.3681 77.9892 24.4305 77.9269 24.4928C78.3011 24.4928 78.613 24.8671 78.9873 24.8047C79.424 24.8047 79.7359 24.3057 80.2349 24.3057C80.2349 24.0562 79.7983 24.3057 79.6111 24.3057C79.1121 24.1809 78.9249 23.5571 78.2388 23.8067C78.3011 23.869 78.3635 23.9314 78.4259 23.9314C78.3011 23.9314 78.114 23.869 77.9892 23.9938C77.9269 23.869 77.8021 23.7443 77.6773 23.6819C77.5526 23.5571 77.5526 23.37 77.4902 23.2452C77.3654 22.9333 76.9288 22.871 76.9288 22.5591C76.8664 22.6838 76.8664 22.871 76.9288 22.9957C76.5545 22.6838 76.2426 22.8086 76.2426 22.2472C76.2426 21.7481 76.3674 21.3738 75.7436 21.1243V21.3115C75.5564 21.1243 75.4317 20.9996 75.4317 20.6877C75.4317 20.4381 75.6812 20.251 75.6188 20.0015C75.6188 19.8143 75.5564 19.6896 75.6812 19.5024C75.494 19.5648 75.4317 19.752 75.3693 19.9391C75.3693 19.6896 75.3069 19.4401 75.1198 19.2529C75.0574 19.3777 74.995 19.5648 74.9326 19.752C74.995 19.6272 74.9326 19.4401 74.9326 19.6272Z" fill="#75A843"/>
<path d="M82.0445 23.3708C81.9197 23.3708 81.8573 23.246 81.7949 23.1836C81.7949 23.0589 82.294 22.9341 82.3564 22.9341V22.8093C81.5454 23.0589 79.1126 23.246 78.6136 22.3727C78.364 22.747 77.9274 22.4974 77.4907 22.1855C77.5531 22.3103 77.8026 22.9341 77.8026 22.8717C77.9274 22.9341 78.7383 23.1212 78.7383 23.3084L78.5512 23.4955C79.8612 23.9322 80.6721 24.0569 82.0445 23.3708Z" fill="#428BC1"/>
<path d="M81.2332 23.3697C81.2956 23.3073 81.2956 23.2449 81.2956 23.1202L81.2332 22.933C81.358 22.8083 81.2332 22.4964 81.0461 22.5588C80.9213 22.6211 80.9837 22.6211 80.8589 22.5588C80.7966 22.5588 80.7966 22.4964 80.7342 22.4964H79.6113C79.4866 22.4964 79.4866 22.434 79.3618 22.434C79.2371 22.3716 79.1747 22.4964 79.1123 22.5588C79.1123 22.6835 79.1747 22.6835 79.1747 22.7459C79.1747 22.8083 79.1123 22.8707 79.1123 22.9954C79.1123 23.1202 79.1747 23.1826 79.2371 23.2449C78.9875 23.4321 79.2371 23.744 79.4866 23.5568C79.549 23.6816 79.7361 23.6816 79.9232 23.6816H80.6094C80.7342 23.6816 80.9837 23.744 81.0461 23.5568C81.2332 23.8687 81.4827 23.4945 81.2332 23.3697Z" fill="#ED4C5C"/>
<path d="M83.2295 21.7487C82.7305 21.1249 82.481 22.0606 81.9196 21.9983C82.0443 21.2497 80.9215 21.4992 80.6096 21.6864C80.672 21.624 80.7343 21.4992 80.7967 21.3745C80.5472 21.3745 80.2353 21.4992 80.0482 21.3121C79.6739 21.0626 79.1748 20.9378 78.8629 21.3745C78.6134 21.0002 77.9272 20.6259 77.553 21.0002C77.553 20.6259 77.1787 20.0645 76.742 20.1269C76.243 20.1892 76.4301 20.813 76.6796 21.0626C76.8668 21.2497 77.1163 21.3121 77.3658 21.3121C77.3658 21.4368 77.4282 21.4992 77.4906 21.5616C77.8025 21.8111 78.4263 21.8735 78.7382 21.624C78.7382 22.2478 79.9858 22.2478 80.2977 21.9359C80.1729 22.2478 80.0482 22.8716 80.4848 22.8716C80.8591 22.8716 80.7343 22.4973 81.0462 22.3725C81.2958 22.2478 81.6077 22.1854 81.8572 22.3102C82.2938 22.5597 83.6662 22.4973 83.2295 21.7487Z" fill="#428BC1"/>
<path d="M78.1149 20.1901C78.0525 20.0654 77.9277 19.9406 77.9277 19.9406C77.6782 20.003 77.6782 19.8158 77.6158 19.6287C77.5534 19.3168 77.1168 19.192 77.1168 18.9425C77.1168 18.693 77.3663 18.4435 77.1792 18.194C76.992 17.9445 76.6801 17.8197 76.6801 17.9445C76.6177 18.0692 76.9296 18.0692 76.9296 18.3811C76.9296 18.7554 76.5554 19.0673 76.992 19.3792C77.2415 19.7535 77.2415 20.4396 77.6782 20.4396C77.8653 20.4396 78.0525 20.3773 78.1149 20.1901Z" fill="#75A843"/>
<path d="M79.0508 19.8778C78.9261 19.6283 79.0508 19.254 78.8013 19.0669C78.4894 18.8174 77.8656 19.3164 77.8032 18.6926C77.8032 18.5679 78.4894 17.8193 78.6142 17.7569C78.8013 17.5074 78.7389 17.0707 78.5518 16.946C78.3023 16.8212 78.2399 16.946 78.0528 17.1955C78.1151 17.2579 78.3647 17.3826 78.3647 17.445C78.1775 17.8817 77.6161 17.9441 77.4913 18.3807C77.3666 18.6926 77.429 19.1917 77.7409 19.3788C77.928 19.5036 78.0528 19.5036 78.2399 19.5036C78.8013 19.4412 78.4894 19.5659 78.5518 19.6907C78.5518 19.8155 78.7389 20.2521 79.0508 19.8778ZM77.1794 16.8212C77.1794 17.1955 77.5537 17.1331 77.8032 17.0707C77.8032 16.946 77.8032 16.8212 77.8656 16.6965C77.7409 16.7588 77.5537 16.7588 77.4913 16.6965C77.3042 16.5717 77.928 16.3222 77.8656 16.3222C77.8656 16.3222 77.2418 16.6341 77.4913 16.2598C77.5537 16.135 77.6785 16.0103 77.7409 15.8855C77.8032 15.7608 77.5537 15.8855 77.5537 15.8855C77.4913 15.8855 77.429 15.8855 77.3666 15.9479C76.9923 16.2598 77.1171 16.4469 77.1794 16.8212Z" fill="#75A843"/>
<path d="M83.7908 16.8204C83.4789 16.3837 82.2937 14.949 80.6094 14.8242C80.4223 14.8242 79.9232 15.0114 79.7361 15.0737C79.1747 15.448 80.3599 15.7599 80.4223 16.0094C80.4223 16.1342 80.4847 16.1966 80.4847 16.3213C80.2975 16.0094 80.1104 15.8223 80.048 15.6975C79.7361 15.8223 79.2371 15.6352 79.1747 15.3233C79.1123 15.448 79.1123 15.5104 78.9875 15.6352C78.9875 15.448 78.9252 15.448 78.8628 15.3233C78.8628 15.5104 78.8628 15.7599 78.6756 15.8223C78.738 15.6975 78.6756 15.5728 78.6133 15.448C78.6133 15.6352 78.6133 15.7599 78.4885 15.8847C78.5509 15.7599 78.4261 15.6975 78.4261 15.5728C78.3637 16.0718 77.6776 16.259 78.3637 16.4461C78.6133 16.5085 78.738 16.4461 78.9875 16.5709C79.0499 16.6332 79.1747 16.758 79.1747 16.6956C79.1747 16.758 78.9252 17.0075 79.1123 17.0699C79.0499 17.1323 78.8628 17.5066 78.8628 17.5066C79.0499 17.5066 78.9252 17.6313 78.8004 17.7561C78.6133 18.068 78.8004 18.3799 78.8628 18.7542C78.8628 18.6294 79.0499 18.8165 79.0499 19.0037C79.0499 19.2532 79.2994 19.378 79.3618 19.5651C79.0499 19.2532 78.9875 19.5651 79.3618 19.7522C79.0499 19.7522 78.9875 19.9394 79.2994 20.0641C78.5509 20.0641 79.1747 20.376 79.2994 20.4384C79.7985 20.5632 80.1728 20.1889 80.1728 20.1265C80.1728 20.1265 81.1708 21.1246 81.2332 21.1246C81.2956 21.1246 81.7946 20.8751 81.9194 20.9998C82.0442 21.187 82.1689 20.9998 82.2937 21.0622C82.4184 21.187 82.9175 21.0622 83.0422 20.9998C83.1046 20.9998 83.7284 20.8751 83.6037 20.7503C83.2918 20.5008 82.9175 20.2513 82.6056 20.0018C82.2937 19.7522 81.9818 19.5651 81.7323 19.3156C81.6075 19.1908 81.6075 18.9413 81.5451 18.7542C82.1065 19.3156 82.668 19.6275 82.6056 18.567C82.9799 18.8789 83.7284 20.6255 83.7908 20.6255C83.9779 20.6255 83.7908 18.7542 83.7908 18.567C84.0403 18.8165 84.0403 20.8751 84.1027 20.8751C84.4146 20.9375 84.8513 18.1927 83.7908 16.8204Z" fill="#89664C"/>
<path d="M79.2997 20.0016C79.2374 20.0016 78.9255 19.5649 78.9255 19.5025C79.1126 20.2511 78.364 19.8144 78.5512 19.5025C78.3017 19.4401 77.6779 19.8144 77.9274 20.1887C77.8026 20.4382 78.8007 20.2511 78.8631 20.1263C79.1126 20.6877 79.7364 20.0639 79.2997 20.0016ZM82.2316 21.873C82.5435 21.4363 81.2335 21.3115 81.3583 20.8125C81.1711 20.9373 80.9216 21.3739 80.6721 21.2492C80.5473 21.1868 80.0483 21.4987 80.2978 21.6858C80.2978 21.4363 80.4226 21.6234 80.6097 21.5611C80.5473 21.7482 80.3602 21.9353 80.6721 22.0601C80.5473 21.6858 81.0464 21.873 80.984 21.6858C80.8592 21.5611 81.4206 21.5611 81.483 21.5611C81.6702 21.5611 82.294 21.7482 82.0444 21.9353C82.0444 21.9353 82.1692 21.9353 82.2316 21.873ZM78.0521 16.5083C77.9898 16.633 77.7402 16.8202 77.7402 17.0073C77.7402 17.1321 78.0521 17.444 78.1769 17.2568C77.8026 17.0073 78.2393 16.8202 78.4264 16.8202C78.4888 16.8202 78.4888 16.9449 78.4888 16.9449C78.5512 17.0073 79.0502 16.8202 78.9878 16.6954C79.0502 16.4459 78.2393 16.4459 78.0521 16.5083Z" fill="#FFCE31"/>
<path d="M160.72 18.7139H123.292C123.292 22.1448 124.228 25.3261 125.787 28.0709H158.225C159.847 25.3261 160.72 22.1448 160.72 18.7139Z" fill="#2A5F9E"/>
<path d="M142.006 0C131.713 0 123.292 8.35891 123.292 18.714H160.72C160.72 8.35891 152.361 0 142.006 0Z" fill="#FFE62E"/>
<path d="M142.006 37.4283C148.931 37.4283 154.981 33.6855 158.225 28.0713H125.788C129.094 33.6855 135.082 37.4283 142.006 37.4283Z" fill="#ED4C5C"/>
</svg>
