<svg width="38" height="38" viewBox="0 0 38 38" fill="none" xmlns="http://www.w3.org/2000/svg">
<path d="M28.6953 2.86947C25.7634 1.06046 22.3949 0 18.7145 0V2.86947H28.6953Z" fill="#ED4C5C"/>
<path d="M18.7146 5.73959H32.1887C31.1282 4.67913 29.943 3.68106 28.6954 2.87012H18.7146V5.73959Z" fill="white"/>
<path d="M18.7145 8.60775H34.4966C33.8104 7.5473 33.0619 6.6116 32.2509 5.73828H18.7145V8.60775Z" fill="#ED4C5C"/>
<path d="M18.7146 11.4788H35.9938C35.5572 10.4808 35.0581 9.48269 34.4967 8.60938H18.7146V11.4788Z" fill="white"/>
<path d="M18.7145 14.347H36.9294C36.6799 13.3489 36.368 12.4132 35.9937 11.4775H18.7145V14.347Z" fill="#ED4C5C"/>
<path d="M18.7146 17.2796H37.3662C37.3038 16.2816 37.1167 15.3459 36.9295 14.4102H18.7146V17.2796" fill="white"/>
<path d="M37.3663 17.2783H18.7147V18.7131H0.000732422C0.000732422 19.2121 0.000732361 19.6488 0.0631123 20.1478H37.3663C37.4287 19.6488 37.4287 19.2121 37.4287 18.7131C37.4287 18.214 37.4287 17.715 37.3663 17.2783" fill="#ED4C5C"/>
<path d="M0.499892 23.0189H36.9298C37.1793 22.0832 37.304 21.1475 37.3664 20.1494H0.0632324C0.125612 21.0851 0.250372 22.0832 0.499892 23.0189Z" fill="white"/>
<path d="M1.43512 25.888H35.9936C36.3679 24.9523 36.6798 24.0166 36.9293 23.0186H0.49942C0.74894 24.0166 1.06084 24.9523 1.43512 25.888Z" fill="#ED4C5C"/>
<path d="M2.93227 28.7572H34.4965C35.0579 27.8215 35.557 26.8858 35.9936 25.8877H1.43515C1.87181 26.8858 2.37085 27.8215 2.93227 28.7572" fill="white"/>
<path d="M5.17805 31.6263H32.2509C33.0619 30.753 33.8728 29.7549 34.4966 28.7568H2.93237C3.55617 29.8173 4.36711 30.753 5.17805 31.6263Z" fill="#ED4C5C"/>
<path d="M8.67134 34.4954H28.7577C30.0677 33.6845 31.1905 32.6864 32.251 31.626H5.17807C6.23853 32.7488 7.42375 33.6845 8.67134 34.4954Z" fill="white"/>
<path d="M18.7148 37.4279C22.3952 37.4279 25.8261 36.3675 28.758 34.4961H8.67163C11.6035 36.3675 15.0344 37.4279 18.7148 37.4279Z" fill="#ED4C5C"/>
<path d="M8.73368 2.86947C7.4237 3.68041 6.23848 4.67849 5.17802 5.73895C4.3047 6.61226 3.55614 7.61034 2.93234 8.60842C2.37092 9.54412 1.80951 10.4798 1.43523 11.4779C1.06095 12.4136 0.749047 13.3493 0.499528 14.3474C0.250008 15.2831 0.125248 16.2188 0.0628681 17.2168C0.000488221 17.7159 0.000488281 18.2149 0.000488281 18.714H18.7145V0C15.034 0 11.6655 1.06046 8.73368 2.86947Z" fill="#428BC1"/>
<path d="M14.3476 0.624023L14.6595 1.55972H15.5952L14.8466 2.18352L15.0962 3.11922L14.3476 2.5578L13.599 3.11922L13.8486 2.18352L13.1 1.55972H14.0357L14.3476 0.624023ZM16.8428 4.36681L17.1547 5.30251H18.0904L17.3418 5.92631L17.5913 6.86201L16.8428 6.30059L16.0942 6.86201L16.3438 5.92631L15.5952 5.30251H16.5309L16.8428 4.36681ZM11.8524 4.36681L12.1643 5.30251H13.1L12.3514 5.92631L12.601 6.86201L11.8524 6.30059L11.1038 6.86201L11.3534 5.92631L10.6048 5.30251H11.5405L11.8524 4.36681ZM14.3476 8.10961L14.6595 9.0453H15.5952L14.8466 9.6691L15.0962 10.6048L14.3476 10.0434L13.599 10.6048L13.8486 9.6691L13.1 9.0453H14.0357L14.3476 8.10961ZM9.3572 8.10961L9.6691 9.0453H10.6048L9.85624 9.6691L10.1058 10.6048L9.3572 10.0434L8.60864 10.6048L8.85816 9.6691L8.1096 9.0453H9.0453L9.3572 8.10961ZM4.36681 8.10961L4.67871 9.0453H5.61441L4.86585 9.6691L5.11537 10.6048L4.36681 10.0434L3.61825 10.6048L3.86777 9.6691L3.11921 9.0453H4.05491L4.36681 8.10961ZM16.8428 11.8524L17.1547 12.7881H18.0904L17.3418 13.4119L17.5913 14.3476L16.8428 13.7862L16.0942 14.3476L16.3438 13.4119L15.5952 12.7881H16.5309L16.8428 11.8524ZM11.8524 11.8524L12.1643 12.7881H13.1L12.3514 13.4119L12.601 14.3476L11.8524 13.7862L11.1038 14.3476L11.3534 13.4119L10.6048 12.7881H11.5405L11.8524 11.8524ZM6.86201 11.8524L7.17391 12.7881H8.1096L7.36104 13.4119L7.61056 14.3476L6.86201 13.7862L6.11345 14.3476L6.36297 13.4119L5.61441 12.7881H6.55011L6.86201 11.8524ZM14.3476 15.5952L14.6595 16.5309H15.5952L14.8466 17.1547L15.0962 18.0904L14.3476 17.529L13.599 18.0904L13.8486 17.1547L13.1 16.5309H14.0357L14.3476 15.5952ZM9.3572 15.5952L9.6691 16.5309H10.6048L9.85624 17.1547L10.1058 18.0904L9.3572 17.529L8.60864 18.0904L8.85816 17.1547L8.1096 16.5309H9.0453L9.3572 15.5952ZM4.36681 15.5952L4.67871 16.5309H5.61441L4.86585 17.1547L5.11537 18.0904L4.36681 17.529L3.61825 18.0904L3.86777 17.1547L3.11921 16.5309H4.05491L4.36681 15.5952ZM6.11345 6.86201L6.86201 6.30059L7.61056 6.86201L7.29866 5.92631L8.04722 5.30251H7.11153L6.86201 4.36681L6.55011 5.30251H5.67679L6.42535 5.86393L6.11345 6.86201V6.86201ZM1.12305 14.3476L1.87161 13.7862L2.62017 14.3476L2.30827 13.4119L3.05683 12.7881H2.18351L1.87161 11.8524L1.55971 12.7881H0.935915C0.935915 12.8505 0.873535 12.9129 0.873535 12.9752L1.37257 13.3495L1.12305 14.3476" fill="white"/>
</svg>
