<svg width="37" height="24" viewBox="0 0 37 24" fill="none" xmlns="http://www.w3.org/2000/svg">
<path fill-rule="evenodd" clip-rule="evenodd" d="M0 5.15345C0 3.94285 0.48091 2.78183 1.33694 1.9258C2.19296 1.06978 3.35398 0.588867 4.56458 0.588867H21.6818C22.7889 0.588737 23.8583 0.99099 24.6909 1.72072C25.5235 2.45045 26.0625 3.45791 26.2076 4.55549L33.3055 1.40136C33.6529 1.24656 34.0335 1.18104 34.4127 1.21076C34.7919 1.24048 35.1576 1.36449 35.4767 1.57154C35.7958 1.77858 36.058 2.06208 36.2397 2.39627C36.4213 2.73046 36.5165 3.10474 36.5167 3.4851V20.5156C36.5163 20.8956 36.4211 21.2696 36.2396 21.6035C36.0581 21.9374 35.7961 22.2207 35.4773 22.4277C35.1586 22.6347 34.7932 22.7588 34.4143 22.7887C34.0354 22.8187 33.6551 22.7536 33.3078 22.5993L26.2076 19.4452C26.0625 20.5427 25.5235 21.5502 24.6909 22.2799C23.8583 23.0097 22.7889 23.4119 21.6818 23.4118H4.56458C3.35398 23.4118 2.19296 22.9309 1.33694 22.0748C0.48091 21.2188 0 20.0578 0 18.8472V5.15345ZM26.2464 16.9643L34.2344 20.5156V3.4851L26.2464 7.03634V16.9643ZM4.56458 2.87116C3.95928 2.87116 3.37877 3.11161 2.95076 3.53963C2.52275 3.96764 2.28229 4.54815 2.28229 5.15345V18.8472C2.28229 19.4525 2.52275 20.033 2.95076 20.461C3.37877 20.889 3.95928 21.1295 4.56458 21.1295H21.6818C22.2871 21.1295 22.8676 20.889 23.2956 20.461C23.7236 20.033 23.9641 19.4525 23.9641 18.8472V5.15345C23.9641 4.54815 23.7236 3.96764 23.2956 3.53963C22.8676 3.11161 22.2871 2.87116 21.6818 2.87116H4.56458Z" fill="#193469"/>
</svg>
