<svg width="300" height="67" viewBox="0 0 300 67" fill="none" xmlns="http://www.w3.org/2000/svg">
<g clip-path="url(#clip0_72_717)">
<path d="M93.6779 10.4205C92.5777 6.31908 89.3361 3.08856 85.2195 1.99239C77.7577 0.000236511 47.8385 0.000228882 47.8385 0.000228882C47.8385 0.000228882 17.9196 0.000236511 10.458 1.99239C6.34176 3.08856 3.09951 6.31908 1.99937 10.4205C0 17.855 0 33.3661 0 33.3661C0 33.3661 0 48.8777 1.99937 56.3119C3.09951 60.413 6.34176 63.6438 10.458 64.7397C17.9196 66.7324 47.8385 66.7324 47.8385 66.7324C47.8385 66.7324 77.7577 66.7324 85.2195 64.7397C89.3361 63.6438 92.5777 60.413 93.6779 56.3119C95.6776 48.8777 95.6776 33.3661 95.6776 33.3661C95.6776 33.3661 95.6776 17.855 93.6779 10.4205Z" fill="#ED1D24"/>
<path d="M38.271 47.666L63.1279 33.3664L38.271 19.0665V47.666Z" fill="white"/>
<path d="M149.481 54.1631C150.005 52.8006 150.268 50.5737 150.268 47.4832V34.4612C150.268 31.4618 150.005 29.2695 149.481 27.8828C148.956 26.4969 148.033 25.8033 146.71 25.8033C145.433 25.8033 144.531 26.4969 144.007 27.8828C143.483 29.2695 143.22 31.4618 143.22 34.4612V47.4832C143.22 50.5737 143.471 52.8006 143.973 54.1631C144.474 55.5272 145.386 56.2082 146.71 56.2082C148.033 56.2082 148.956 55.5272 149.481 54.1631ZM138.876 60.7081C136.982 59.4369 135.636 57.4592 134.839 54.7767C134.041 52.0962 133.642 48.5281 133.642 44.074V38.0065C133.642 33.5072 134.097 29.8936 135.01 27.167C135.922 24.4401 137.347 22.4522 139.287 21.202C141.225 19.9525 143.768 19.3272 146.916 19.3272C150.017 19.3272 152.503 19.9639 154.373 21.2359C156.243 22.5083 157.612 24.4974 158.479 27.201C159.344 29.9056 159.778 33.5072 159.778 38.0065V44.074C159.778 48.5281 159.356 52.1079 158.513 54.8114C157.668 57.5156 156.3 59.493 154.407 60.7421C152.514 61.9919 149.949 62.6172 146.71 62.6172C143.38 62.6172 140.768 61.9802 138.876 60.7081Z" fill="white"/>
<path d="M285.395 26.5863C284.917 27.1772 284.597 28.1431 284.438 29.4833C284.277 30.8243 284.199 32.8578 284.199 35.5847V38.5844H291.108V35.5847C291.108 32.9038 291.017 30.8699 290.835 29.4833C290.652 28.0974 290.322 27.1208 289.844 26.5522C289.364 25.9839 288.623 25.6998 287.62 25.6998C286.615 25.6998 285.874 25.9958 285.395 26.5863ZM284.199 44.1749V46.2884C284.199 48.9706 284.277 50.9814 284.438 52.3216C284.597 53.6626 284.927 54.6399 285.43 55.2538C285.932 55.8665 286.706 56.174 287.757 56.174C289.169 56.174 290.14 55.6284 290.664 54.5372C291.188 53.4466 291.473 51.6288 291.519 49.0831L299.661 49.5606C299.707 49.9254 299.73 50.4251 299.73 51.0602C299.73 54.924 298.67 57.8103 296.548 59.719C294.428 61.6272 291.427 62.582 287.551 62.582C282.899 62.582 279.637 61.1282 277.767 58.2186C275.896 55.3111 274.961 50.8113 274.961 44.7205V37.4255C274.961 31.1535 275.93 26.5755 277.869 23.6883C279.808 20.8026 283.126 19.3595 287.825 19.3595C291.063 19.3595 293.549 19.9505 295.283 21.1319C297.015 22.3144 298.236 24.1551 298.943 26.654C299.65 29.154 300.004 32.6086 300.004 37.0166V44.1749H284.199Z" fill="white"/>
<path d="M115.884 43.3911L105.142 4.73616H114.515L118.278 22.2571C119.237 26.5758 119.943 30.2569 120.399 33.3011H120.673C120.992 31.1198 121.699 27.4616 122.794 22.3254L126.694 4.73616H136.068L125.189 43.3911V61.9355H115.884V43.3911Z" fill="white"/>
<path d="M190.265 20.1456V61.9361H182.875L182.054 56.8232H181.849C179.841 60.686 176.831 62.6172 172.817 62.6172C170.035 62.6172 167.982 61.7092 166.659 59.8906C165.336 58.0738 164.675 55.2323 164.675 51.3691V20.1456H174.117V50.8235C174.117 52.688 174.323 54.0169 174.733 54.8117C175.144 55.6077 175.828 56.0047 176.786 56.0047C177.607 56.0047 178.394 55.7555 179.146 55.2543C179.899 54.7547 180.457 54.1196 180.823 53.3465V20.1456H190.265Z" fill="white"/>
<path d="M238.698 20.1456V61.9361H231.308L230.486 56.8232H230.282C228.273 60.686 225.263 62.6172 221.25 62.6172C218.467 62.6172 216.415 61.7092 215.092 59.8906C213.769 58.0738 213.108 55.2323 213.108 51.3691V20.1456H222.55V50.8235C222.55 52.688 222.755 54.0169 223.165 54.8117C223.576 55.6077 224.261 56.0047 225.218 56.0047C226.04 56.0047 226.827 55.7555 227.579 55.2543C228.332 54.7547 228.89 54.1196 229.255 53.3465V20.1456H238.698Z" fill="white"/>
<path d="M215.922 12.305H206.549V61.9355H197.312V12.305H187.938V4.73742H215.922V12.305Z" fill="white"/>
<path d="M261.292 43.872C261.292 46.9173 261.166 49.3036 260.915 51.03C260.665 52.7583 260.243 53.985 259.65 54.7114C259.057 55.4389 258.257 55.8021 257.255 55.8021C256.479 55.8021 255.761 55.6212 255.1 55.2565C254.438 54.8933 253.903 54.3482 253.492 53.6202V29.896C253.811 28.7606 254.358 27.8285 255.134 27.1011C255.909 26.3749 256.752 26.0104 257.665 26.0104C258.623 26.0104 259.364 26.3857 259.889 27.1351C260.413 27.8849 260.778 29.1462 260.984 30.9192C261.189 32.6913 261.292 35.2138 261.292 38.4859V43.872ZM269.947 26.8255C269.376 24.1903 268.452 22.2815 267.176 21.099C265.898 19.9182 264.142 19.3269 261.908 19.3269C260.174 19.3269 258.555 19.8158 257.05 20.7924C255.545 21.7699 254.381 23.054 253.56 24.6446H253.491L253.492 2.6241H244.392V61.9349H252.191L253.15 57.9815H253.355C254.084 59.39 255.179 60.5037 256.639 61.3218C258.098 62.1396 259.718 62.5488 261.497 62.5488C264.689 62.5488 267.039 61.0827 268.544 58.1516C270.049 55.2197 270.802 50.6417 270.802 44.4146V37.8017C270.802 33.1211 270.516 29.4623 269.947 26.8255Z" fill="white"/>
</g>
<defs>
<clipPath id="clip0_72_717">
<rect width="300" height="66.7323" fill="white"/>
</clipPath>
</defs>
</svg>
