<svg width="251" height="57" viewBox="0 0 251 57" fill="none" xmlns="http://www.w3.org/2000/svg">
<path d="M47.8044 45.113L44.9878 44.9878H19.6929L53.4298 11.2509L53.3046 8.43423C53.2398 6.24899 52.3427 4.17104 50.7968 2.62516C49.251 1.07928 47.173 0.182218 44.9878 0.117355L42.179 0H0L0.164303 2.8088C0.485086 7.378 3.82592 10.844 8.42641 11.1257L11.243 11.2509H36.5927L2.80098 44.9878L2.92616 47.8044C3.00755 49.9842 3.90992 52.0527 5.45234 53.5951C6.99477 55.1375 9.06323 56.0399 11.243 56.1213L14.0597 56.2386H56.2386L56.1134 53.4298C55.7457 48.8215 52.444 45.4416 47.7966 45.1599L47.8044 45.113ZM81.5804 0.00781966H81.5413C44.0567 0.0469395 44.088 56.2386 81.5413 56.2386C119.034 56.2386 119.034 0.0547634 81.5804 0.00781966ZM93.4807 40.0665C91.9284 41.6997 90.0646 43.0051 87.9993 43.9058C85.9339 44.8064 83.7091 45.284 81.4561 45.3103C79.203 45.3365 76.9676 44.9109 74.8819 44.0587C72.7961 43.2064 70.9024 41.9447 69.3125 40.3482C67.7213 38.755 66.4645 36.86 65.616 34.7744C64.7674 32.6888 64.3442 30.4546 64.3712 28.2031C64.3981 25.9517 64.8748 23.7283 65.773 21.6636C66.6713 19.5989 67.9731 17.7345 69.602 16.1799C85.5315 1.06406 108.597 24.1291 93.4807 40.0665ZM227.756 0.00781966C221.316 0.00781966 215.206 2.76968 210.926 7.62054C207.303 3.51971 202.311 0.878349 196.883 0.190082C191.455 -0.498185 185.961 0.813746 181.43 3.88069C179.27 1.43179 174.334 0.00781966 171.564 0.00781966V56.2386L174.38 56.1213C179.067 55.7848 182.486 52.491 182.65 47.8044L182.807 44.9878V25.3027L182.932 22.4939C183.057 20.3736 183.339 18.4958 184.317 16.8685C185.808 14.2842 188.265 12.398 191.146 11.6248C194.028 10.8515 197.099 11.2546 199.683 12.7452C201.397 13.7232 202.774 15.155 203.752 16.8215C204.73 18.488 205.011 20.3658 205.136 22.4861L205.301 25.2949V44.98L205.418 47.7966C205.708 52.3579 209.088 55.777 213.735 56.1134L216.552 56.2308V25.3027L216.669 22.4939C216.755 20.4205 217.076 18.4567 218.054 16.8293C219.041 15.1185 220.463 13.6985 222.175 12.7128C223.887 11.7271 225.829 11.2105 227.804 11.2153C229.78 11.22 231.719 11.7459 233.426 12.7399C235.133 13.7339 236.548 15.1607 237.528 16.8763C238.467 18.5037 238.756 20.4205 238.873 22.5017L239.038 25.3105V44.9956L239.163 47.8122C239.25 49.9902 240.154 52.0556 241.695 53.5969C243.236 55.1382 245.302 56.0423 247.48 56.1291L250.289 56.2464V22.5095C250.28 16.5396 247.902 10.817 243.677 6.59929C239.452 2.38154 233.726 0.0135674 227.756 0.0156468V0.00781966ZM120.739 8.23863C118.017 10.8207 115.839 13.9221 114.334 17.3597C112.83 20.7973 112.029 24.5014 111.979 28.2535C111.93 32.0056 112.632 35.7296 114.045 39.2057C115.459 42.6819 117.554 45.8397 120.207 48.4929C122.859 51.1504 126.016 53.2497 129.492 54.667C132.968 56.0843 136.693 56.7909 140.446 56.7449C144.2 56.699 147.906 55.9015 151.347 54.3995C154.787 52.8976 157.892 50.7216 160.477 48C185.702 21.5159 147.231 -16.9467 120.739 8.23081V8.23863ZM152.528 40.0665C150.97 41.6767 149.106 42.9603 147.046 43.8426C144.987 44.7249 142.772 45.1882 140.531 45.2054C138.29 45.2226 136.069 44.7934 133.995 43.9428C131.922 43.0922 130.039 41.8373 128.456 40.2512C126.874 38.6652 125.622 36.7797 124.776 34.705C123.929 32.6302 123.504 30.4076 123.526 28.1669C123.548 25.9262 124.015 23.7123 124.902 21.6542C125.788 19.5961 127.075 17.7352 128.689 16.1799C144.579 0.696332 168.051 24.1291 152.528 40.0665Z" fill="#1E55BF"/>
</svg>
